<svg width="154" height="47" fill="none" xmlns="http://www.w3.org/2000/svg"><rect width="154" height="47" rx="5" fill="#002D77"/><path d="M77.725 25.558c-2.683 0-4.87 2.102-4.87 4.997 0 2.877 2.187 4.997 4.87 4.997 2.685 0 4.871-2.12 4.871-4.997 0-2.895-2.188-4.997-4.87-4.997zm0 8.027c-1.47 0-2.737-1.249-2.737-3.03 0-1.798 1.268-3.028 2.737-3.028 1.47 0 2.738 1.23 2.738 3.029 0 1.779-1.267 3.03-2.737 3.03zm-10.624-8.027c-2.683 0-4.87 2.102-4.87 4.997 0 2.877 2.187 4.997 4.87 4.997 2.684 0 4.87-2.12 4.87-4.997 0-2.895-2.186-4.997-4.87-4.997zm0 8.027c-1.47 0-2.738-1.249-2.738-3.03 0-1.798 1.268-3.028 2.738-3.028s2.737 1.23 2.737 3.029c.002 1.779-1.267 3.03-2.737 3.03zm-12.637-6.493v2.12h4.925c-.147 1.192-.533 2.063-1.121 2.668-.717.738-1.838 1.552-3.804 1.552-3.033 0-5.403-2.518-5.403-5.64 0-3.124 2.37-5.642 5.403-5.642 1.635 0 2.83.663 3.712 1.515l1.452-1.496c-1.232-1.212-2.867-2.139-5.164-2.139-4.154 0-7.646 3.483-7.646 7.761 0 4.278 3.492 7.761 7.646 7.761 2.241 0 3.933-.758 5.255-2.177 1.36-1.4 1.783-3.37 1.783-4.96 0-.491-.037-.946-.11-1.324h-6.928v.001zm51.684 1.646c-.404-1.116-1.636-3.18-4.153-3.18-2.5 0-4.577 2.025-4.577 4.997 0 2.801 2.06 4.997 4.815 4.997 2.223 0 3.51-1.4 4.044-2.215l-1.654-1.136c-.551.833-1.305 1.382-2.39 1.382-1.084 0-1.856-.511-2.352-1.515l6.487-2.763-.22-.567zm-6.616 1.666c-.055-1.931 1.452-2.915 2.537-2.915.845 0 1.562.436 1.801 1.06l-4.338 1.855zm-5.274 4.846h2.131V20.561h-2.13V35.25zm-3.493-8.575h-.073c-.478-.588-1.397-1.117-2.554-1.117-2.426 0-4.65 2.195-4.65 5.017 0 2.8 2.224 4.978 4.65 4.978 1.158 0 2.076-.53 2.554-1.135h.073v.72c0 1.911-.992 2.933-2.59 2.933-1.305 0-2.114-.965-2.445-1.779l-1.856.796c.533 1.324 1.947 2.953 4.3 2.953 2.5 0 4.614-1.515 4.614-5.207v-8.972h-2.022v.813zm-2.443 6.91c-1.47 0-2.701-1.269-2.701-3.01 0-1.762 1.23-3.048 2.7-3.048 1.452 0 2.591 1.286 2.591 3.048 0 1.741-1.14 3.01-2.59 3.01zm27.812-13.024h-5.1V35.25h2.127v-5.565h2.972c2.359 0 4.679-1.759 4.679-4.561s-2.319-4.563-4.678-4.563zm.055 7.08h-3.028v-5.035h3.028c1.591 0 2.495 1.357 2.495 2.518 0 1.137-.904 2.517-2.495 2.517zm13.155-2.11c-1.541 0-3.137.7-3.798 2.25l1.89.812c.403-.812 1.156-1.078 1.944-1.078 1.101 0 2.22.68 2.239 1.89v.151c-.386-.227-1.212-.566-2.22-.566-2.036 0-4.11 1.152-4.11 3.306 0 1.966 1.67 3.231 3.541 3.231 1.43 0 2.219-.661 2.714-1.437h.073v1.134h2.056v-5.632c.001-2.606-1.89-4.06-4.329-4.06zm-.258 8.05c-.696 0-1.669-.359-1.669-1.247 0-1.134 1.212-1.569 2.258-1.569.934 0 1.376.208 1.944.491-.166 1.362-1.303 2.325-2.533 2.325zm12.073-7.729l-2.44 6.369h-.073l-2.533-6.369h-2.293l3.798 8.901-2.165 4.952h2.22l5.853-13.853h-2.367zm-19.172 9.398h2.128V20.561h-2.128V35.25zM54.092 12.036c0 .984-.283 1.768-.85 2.353-.643.696-1.483 1.043-2.514 1.043a3.394 3.394 0 01-2.52-1.057c-.69-.706-1.036-1.58-1.036-2.624s.346-1.919 1.037-2.624a3.39 3.39 0 012.519-1.058c.49 0 .959.098 1.404.295.446.197.803.459 1.07.787l-.601.62c-.453-.558-1.077-.836-1.874-.836-.721 0-1.344.26-1.87.782s-.788 1.2-.788 2.033.262 1.511.788 2.033c.526.521 1.149.782 1.87.782.764 0 1.402-.262 1.911-.787.331-.342.523-.818.574-1.428h-2.486v-.847h3.317c.034.185.049.362.049.533zM59.35 9.091h-3.116v2.235h2.81v.847h-2.81v2.235h3.117v.867h-3.996v-7.05h3.996v.866zM63.06 15.275h-.88V9.091h-1.912v-.866h4.703v.866h-1.912v6.184zM68.374 15.275v-7.05h.88v7.05h-.88zM73.154 15.275h-.88V9.091h-1.912v-.866h4.704v.866h-1.912v6.184zM83.969 14.364c-.673.712-1.51 1.068-2.51 1.068-1 0-1.837-.356-2.508-1.068-.673-.712-1.009-1.584-1.009-2.614 0-1.03.336-1.902 1.009-2.614.672-.712 1.508-1.07 2.508-1.07.995 0 1.83.359 2.505 1.074.675.716 1.013 1.585 1.013 2.61 0 1.03-.336 1.902-1.008 2.614zm-4.37-.59a2.474 2.474 0 001.86.791c.734 0 1.354-.264 1.86-.792s.76-1.203.76-2.023c0-.82-.254-1.495-.76-2.023a2.472 2.472 0 00-1.86-.792c-.733 0-1.353.264-1.86.792-.505.528-.759 1.203-.759 2.023 0 .82.254 1.495.76 2.023zM86.211 15.275v-7.05h1.07l3.327 5.484h.037l-.037-1.358V8.224h.88v7.05h-.919l-3.48-5.75h-.038l.038 1.358v4.392h-.878z" fill="#fff"/><path d="M54.092 12.036c0 .984-.283 1.768-.85 2.353-.643.696-1.483 1.043-2.514 1.043a3.394 3.394 0 01-2.52-1.057c-.69-.706-1.036-1.58-1.036-2.624s.346-1.919 1.037-2.624a3.39 3.39 0 012.519-1.058c.49 0 .959.098 1.404.295.446.197.803.459 1.07.787l-.601.62c-.453-.558-1.077-.836-1.874-.836-.721 0-1.344.26-1.87.782s-.788 1.2-.788 2.033.262 1.511.788 2.033c.526.521 1.149.782 1.87.782.764 0 1.402-.262 1.911-.787.331-.342.523-.818.574-1.428h-2.486v-.847h3.317c.034.185.049.362.049.533zM59.35 9.091h-3.116v2.235h2.81v.847h-2.81v2.235h3.117v.867h-3.996v-7.05h3.996v.866zM63.06 15.275h-.88V9.091h-1.912v-.866h4.703v.866h-1.912v6.184zM68.374 15.275v-7.05h.88v7.05h-.88zM73.154 15.275h-.88V9.091h-1.912v-.866h4.704v.866h-1.912v6.184zM83.969 14.364c-.673.712-1.51 1.068-2.51 1.068-1 0-1.837-.356-2.508-1.068-.673-.712-1.009-1.584-1.009-2.614 0-1.03.336-1.902 1.009-2.614.672-.712 1.508-1.07 2.508-1.07.995 0 1.83.359 2.505 1.074.675.716 1.013 1.585 1.013 2.61 0 1.03-.336 1.902-1.008 2.614zm-4.37-.59a2.474 2.474 0 001.86.791c.734 0 1.354-.264 1.86-.792s.76-1.203.76-2.023c0-.82-.254-1.495-.76-2.023a2.472 2.472 0 00-1.86-.792c-.733 0-1.353.264-1.86.792-.505.528-.759 1.203-.759 2.023 0 .82.254 1.495.76 2.023zM86.211 15.275v-7.05h1.07l3.327 5.484h.037l-.037-1.358V8.224h.88v7.05h-.919l-3.48-5.75h-.038l.038 1.358v4.392h-.878z" stroke="#fff" stroke-width=".2" stroke-miterlimit="10"/><path fill-rule="evenodd" clip-rule="evenodd" d="M14.655 8.39c.62 0 1.2.176 1.696.482l13.212 7.893-5.843 6.017-11.954-12.31-.09-.093c.524-1.155 1.671-1.99 2.979-1.99zm-3.272 3.123c-.006.085-.01.17-.01.256v23.462c0 .086.004.171.01.256L23.023 23.5l-11.64-11.987zm.293 25.108c.524 1.155 1.671 1.99 2.979 1.99.607 0 1.176-.169 1.664-.465l.04-.024 13.227-7.864-5.866-6.04-11.954 12.31-.09.093zm18.794-6.888l5.427-3.227a3.396 3.396 0 001.728-2.979c0-1.28-.689-2.391-1.708-2.966l-.012-.008-5.46-3.261-6.028 6.208 6.053 6.233z" fill="#fff"/></svg>