<svg width="136" height="40" fill="none" xmlns="http://www.w3.org/2000/svg"><path fill-rule="evenodd" clip-rule="evenodd" d="M130.961 40H5.039C2.262 40 0 37.746 0 35V5c0-2.756 2.262-5 5.039-5H130.96C133.736 0 136 2.244 136 5v30c0 2.746-2.264 5-5.039 5z" fill="#121929"/><path d="M43.624 13.416h-.609v-1.608h.486c.427-.36.633-.968.624-1.84V7.6h3.298v4.208h.55v1.608h-.608V12.4h-3.741v1.016zm1.143-3.44c.008.76-.148 1.368-.469 1.84h2.491V8.192h-2.022v1.784zM52.915 11.776c-.485.488-1.085.728-1.809.728-.723 0-1.324-.24-1.809-.728A2.422 2.422 0 0148.574 10c0-.696.238-1.296.723-1.776.485-.488 1.086-.728 1.81-.728.714 0 1.315.24 1.808.728A2.43 2.43 0 0153.647 10c0 .704-.247 1.296-.732 1.776zm-3.15-.4c.363.36.815.536 1.341.536s.979-.176 1.34-.536c.362-.36.551-.816.551-1.376 0-.56-.18-1.016-.55-1.376-.362-.36-.815-.536-1.34-.536-.527 0-.98.176-1.341.536-.362.36-.551.816-.551 1.376 0 .56.19 1.016.55 1.376zM56.837 12.504c-.724 0-1.332-.24-1.825-.72-.494-.48-.74-1.072-.74-1.792s.246-1.312.74-1.792c.493-.48 1.101-.72 1.825-.72.74 0 1.348.264 1.809.784l-.444.416c-.337-.408-.79-.608-1.373-.608-.535 0-.995.176-1.365.528-.37.352-.551.816-.551 1.384s.18 1.032.55 1.384c.37.352.823.528 1.366.528.592 0 1.093-.232 1.513-.696l.444.432c-.222.264-.51.472-.847.624a2.34 2.34 0 01-1.102.248zM61.36 12.4h-.634V8.192h-1.381V7.6h3.387v.592h-1.381V12.4h.008zM67.09 7.6l-1.866 4.048c-.255.568-.642.856-1.151.856-.148 0-.313-.032-.494-.104l.165-.568a.698.698 0 00.329.088c.148 0 .263-.024.345-.08.082-.056.156-.16.222-.304l.18-.384L63.16 7.6h.748l1.217 2.752h.025L66.342 7.6h.748zM67.805 12.4V7.6h3.569v4.8h-.633V8.192h-2.302V12.4h-.633zM72.5 12.4V7.6h.633v2.056H75.6V7.6h.633v4.8H75.6v-2.168h-2.467V12.4H72.5zM81.405 11.776c-.485.488-1.085.728-1.809.728-.723 0-1.324-.24-1.809-.728A2.422 2.422 0 0177.064 10c0-.696.238-1.296.723-1.776.485-.488 1.086-.728 1.81-.728.714 0 1.315.24 1.808.728A2.43 2.43 0 0182.137 10c-.008.704-.247 1.296-.732 1.776zm-3.15-.4c.363.36.815.536 1.341.536s.978-.176 1.34-.536c.362-.36.551-.816.551-1.376 0-.56-.18-1.016-.55-1.376-.362-.36-.815-.536-1.34-.536-.527 0-.98.176-1.341.536-.362.36-.551.816-.551 1.376 0 .56.18 1.016.55 1.376zM84.719 12.4V7.6h1.784a1.5 1.5 0 011.003.368c.28.248.427.56.427.936a.984.984 0 01-.18.6c-.124.176-.28.304-.486.392v.024c.247.08.444.216.6.416.157.2.24.424.24.688 0 .392-.149.72-.445.976-.296.256-.65.392-1.052.392h-1.891v.008zm.633-2.744h1.15c.24 0 .428-.08.576-.232a.699.699 0 000-1.008.712.712 0 00-.55-.232h-1.176v1.472zm0 2.152h1.274c.247 0 .444-.08.592-.248.148-.168.23-.344.23-.544a.72.72 0 00-.238-.536.829.829 0 00-.617-.248h-1.25v1.576h.009z" fill="#fff" stroke="#000" stroke-width=".2" stroke-miterlimit="10"/><path fill-rule="evenodd" clip-rule="evenodd" d="M130.961.8c2.329 0 4.236 1.888 4.236 4.2v30c0 2.312-1.894 4.2-4.236 4.2H5.039C2.709 39.2.803 37.312.803 35V5C.803 2.688 2.697.8 5.04.8H130.96zm0-.8H5.039C2.262 0 0 2.254 0 5v30c0 2.756 2.262 5 5.039 5H130.96c2.775 0 5.039-2.244 5.039-5V5c0-2.746-2.264-5-5.039-5z" fill="#A6A6A6"/><path fill-rule="evenodd" clip-rule="evenodd" d="M68.355 21.755c-2.364 0-4.28 1.788-4.28 4.255 0 2.444 1.928 4.254 4.28 4.254 2.365 0 4.281-1.8 4.281-4.254 0-2.467-1.916-4.255-4.28-4.255zm0 6.823c-1.293 0-2.407-1.067-2.407-2.578 0-1.534 1.116-2.579 2.407-2.579 1.294 0 2.407 1.045 2.407 2.579.003 1.521-1.113 2.578-2.407 2.578zm-9.34-6.823c-2.364 0-4.28 1.788-4.28 4.255 0 2.444 1.929 4.254 4.28 4.254 2.365 0 4.281-1.8 4.281-4.254 0-2.467-1.919-4.255-4.28-4.255zm0 6.823c-1.293 0-2.406-1.067-2.406-2.578 0-1.534 1.115-2.579 2.407-2.579 1.293 0 2.406 1.045 2.406 2.579 0 1.521-1.113 2.578-2.406 2.578zm-11.113-5.523v1.8h4.336c-.133 1.01-.468 1.756-.981 2.267-.636.633-1.616 1.322-3.345 1.322-2.665 0-4.749-2.145-4.749-4.8 0-2.657 2.084-4.801 4.749-4.801 1.438 0 2.487.566 3.265 1.289l1.28-1.277c-1.08-1.032-2.519-1.823-4.535-1.823-3.655 0-6.723 2.968-6.723 6.601 0 3.644 3.065 6.601 6.723 6.601 1.974 0 3.455-.643 4.626-1.855 1.193-1.19 1.571-2.868 1.571-4.222 0-.422-.032-.8-.1-1.122H47.9c.003-.003.003.02.003.02zm45.458 1.401c-.358-.955-1.439-2.71-3.656-2.71-2.197 0-4.023 1.723-4.023 4.254 0 2.389 1.806 4.254 4.236 4.254 1.951 0 3.087-1.19 3.555-1.888l-1.448-.967c-.48.71-1.149 1.177-2.097 1.177-.958 0-1.629-.434-2.074-1.29l5.707-2.356c0 .003-.2-.474-.2-.474zm-5.82 1.422c-.045-1.644 1.281-2.48 2.23-2.48.747 0 1.37.367 1.583.901l-3.813 1.579zM82.904 30h1.874V17.5h-1.874V30zm-3.077-7.3h-.068c-.423-.5-1.226-.955-2.252-.955-2.129 0-4.09 1.868-4.09 4.267 0 2.39 1.951 4.235 4.09 4.235 1.014 0 1.83-.457 2.252-.968h.068v.611c0 1.623-.871 2.499-2.275 2.499-1.148 0-1.861-.823-2.151-1.511l-1.63.678c.469 1.122 1.717 2.511 3.779 2.511 2.197 0 4.058-1.29 4.058-4.434V22h-1.771v.7h-.01zm-2.152 5.878c-1.294 0-2.374-1.077-2.374-2.566 0-1.501 1.08-2.588 2.374-2.588 1.28 0 2.274 1.1 2.274 2.588.013 1.49-.99 2.566-2.274 2.566zm24.459-11.077h-4.481V30h1.874v-4.733h2.609c2.074 0 4.114-1.5 4.114-3.878 0-2.38-2.032-3.888-4.116-3.888zm.055 6.02h-2.665v-4.29h2.665c1.403 0 2.197 1.155 2.197 2.145 0 .98-.804 2.145-2.197 2.145zm11.571-1.788c-1.361 0-2.764.601-3.345 1.91l1.662.688c.357-.688 1.013-.922 1.706-.922.971 0 1.951.578 1.974 1.61v.133c-.335-.19-1.071-.479-1.952-.479-1.793 0-3.612.978-3.612 2.81 0 1.679 1.471 2.756 3.109 2.756 1.259 0 1.952-.566 2.385-1.222h.067v.968h1.807v-4.788c0-2.23-1.661-3.464-3.801-3.464zm-.235 6.845c-.613 0-1.471-.299-1.471-1.067 0-.968 1.071-1.334 1.984-1.334.826 0 1.216.177 1.706.421a2.252 2.252 0 01-2.219 1.98zM124.151 22l-2.152 5.421h-.067L119.702 22h-2.016l3.345 7.578-1.907 4.212h1.952L126.222 22h-2.071zm-16.868 8h1.874V17.5h-1.874V30z" fill="#fff"/><path fill-rule="evenodd" clip-rule="evenodd" d="M10.468 7.534c-.29.312-.458.788-.458 1.412v22.112c0 .623.168 1.1.468 1.399l.078.067 12.43-12.389v-.277L10.545 7.467l-.078.067z" fill="url(#paint0_linear_1002_3410)"/><path fill-rule="evenodd" clip-rule="evenodd" d="M27.121 24.277l-4.146-4.132v-.29l4.146-4.131.09.054 4.904 2.779c1.403.788 1.403 2.09 0 2.887l-4.904 2.778-.09.055z" fill="url(#paint1_linear_1002_3410)"/><path fill-rule="evenodd" clip-rule="evenodd" d="M27.21 24.222L22.976 20 10.468 32.466c.458.49 1.226.544 2.084.068l14.659-8.312z" fill="url(#paint2_linear_1002_3410)"/><path fill-rule="evenodd" clip-rule="evenodd" d="M27.21 15.778L12.553 7.48c-.858-.489-1.629-.421-2.084.068L22.975 20l4.236-4.222z" fill="url(#paint3_linear_1002_3410)"/><path opacity=".2" fill-rule="evenodd" clip-rule="evenodd" d="M27.12 24.132l-14.558 8.244c-.813.467-1.539.434-2.006.01l-.078.078.078.067c.467.421 1.193.456 2.006-.01l14.659-8.3-.1-.09z" fill="#000"/><path opacity=".12" fill-rule="evenodd" clip-rule="evenodd" d="M32.115 21.3l-5.007 2.832.09.09 4.904-2.778c.703-.4 1.049-.923 1.049-1.444-.043.479-.4.933-1.036 1.3z" fill="#000"/><path opacity=".25" fill-rule="evenodd" clip-rule="evenodd" d="M12.552 7.623l19.563 11.078c.635.356.993.823 1.048 1.299 0-.521-.345-1.045-1.048-1.444L12.552 7.479c-1.403-.8-2.542-.133-2.542 1.466v.145c0-1.601 1.139-2.257 2.542-1.467z" fill="#fff"/><defs><linearGradient id="paint0_linear_1002_3410" x1="21.871" y1="8.706" x2="1.967" y2="14.028" gradientUnits="userSpaceOnUse"><stop stop-color="#00A0FF"/><stop offset=".01" stop-color="#00A1FF"/><stop offset=".26" stop-color="#00BEFF"/><stop offset=".51" stop-color="#00D2FF"/><stop offset=".76" stop-color="#00DFFF"/><stop offset="1" stop-color="#00E3FF"/></linearGradient><linearGradient id="paint1_linear_1002_3410" x1="33.945" y1="20" x2="9.669" y2="20" gradientUnits="userSpaceOnUse"><stop stop-color="#FFE000"/><stop offset=".41" stop-color="#FFBD00"/><stop offset=".78" stop-color="orange"/><stop offset="1" stop-color="#FF9C00"/></linearGradient><linearGradient id="paint2_linear_1002_3410" x1="24.907" y1="22.297" x2="9.001" y2="49.158" gradientUnits="userSpaceOnUse"><stop stop-color="#FF3A44"/><stop offset="1" stop-color="#C31162"/></linearGradient><linearGradient id="paint3_linear_1002_3410" x1="7.32" y1=".179" x2="14.416" y2="12.175" gradientUnits="userSpaceOnUse"><stop stop-color="#32A071"/><stop offset=".07" stop-color="#2DA771"/><stop offset=".48" stop-color="#15CF74"/><stop offset=".8" stop-color="#06E775"/><stop offset="1" stop-color="#00F076"/></linearGradient></defs></svg>