<svg width="120" height="40" fill="none" xmlns="http://www.w3.org/2000/svg"><g clip-path="url(#clip0_1002_3394)"><path d="M110.303 0H9.703c-.367 0-.73 0-1.095.002-.306.002-.61.008-.919.013-.672.008-1.341.067-2.004.177a6.665 6.665 0 00-1.9.627A6.438 6.438 0 00.361 5.522a12.993 12.993 0 00-.179 2.002c-.01.306-.01.614-.015.92V31.56c.005.31.006.611.015.922.008.67.068 1.34.18 2.002.11.663.32 1.305.624 1.904.303.598.701 1.143 1.179 1.614.473.477 1.019.875 1.618 1.179a6.7 6.7 0 001.901.63c.663.11 1.333.169 2.004.177.31.007.613.011.919.011.366.002.728.002 1.095.002h100.6c.359 0 .724 0 1.084-.002.304 0 .617-.004.922-.01a13.27 13.27 0 002-.177 6.815 6.815 0 001.908-.631A6.293 6.293 0 00117.834 38a6.403 6.403 0 001.182-1.614c.302-.6.51-1.242.619-1.904.111-.662.173-1.331.185-2.002.004-.311.004-.612.004-.922.008-.364.008-.725.008-1.094V9.536c0-.366 0-.73-.008-1.092 0-.306 0-.614-.004-.92a13.57 13.57 0 00-.185-2.002 6.648 6.648 0 00-.619-1.904 6.469 6.469 0 00-2.799-2.8 6.78 6.78 0 00-1.908-.627c-.661-.11-1.33-.169-2-.176-.305-.005-.618-.011-.922-.013-.36-.002-.725-.002-1.084-.002z" fill="#A6A6A6"/><path d="M8.613 39.125c-.305 0-.602-.004-.904-.01a12.696 12.696 0 01-1.87-.164 5.884 5.884 0 01-1.656-.548 5.406 5.406 0 01-1.397-1.016 5.321 5.321 0 01-1.02-1.397 5.722 5.722 0 01-.544-1.657 12.413 12.413 0 01-.166-1.875c-.007-.21-.015-.913-.015-.913v-23.1s.009-.692.015-.895a12.37 12.37 0 01.165-1.872 5.755 5.755 0 01.544-1.662c.26-.518.603-.99 1.015-1.398A5.565 5.565 0 015.835 1.05C6.455.95 7.083.895 7.711.887l.902-.012h102.769l.913.013a12.37 12.37 0 011.858.162 5.933 5.933 0 011.671.548 5.589 5.589 0 012.415 2.42 5.74 5.74 0 01.535 1.649c.104.624.162 1.255.174 1.887.003.283.003.588.003.89.008.375.008.732.008 1.092v20.929c0 .363 0 .718-.008 1.075 0 .325 0 .623-.004.93-.011.62-.069 1.24-.171 1.853a5.716 5.716 0 01-.54 1.67 5.47 5.47 0 01-1.015 1.386 5.414 5.414 0 01-1.4 1.022 5.855 5.855 0 01-1.668.55c-.618.101-1.243.156-1.869.163-.293.007-.599.011-.897.011l-1.084.002-101.69-.002z" fill="#121929"/><path d="M39.215 11.34h.698a.877.877 0 00.984-.83c0-.48-.362-.79-.977-.79a.933.933 0 00-1.052.815h-.766a1.628 1.628 0 011.179-1.471 1.64 1.64 0 01.664-.05c1.028 0 1.75.573 1.75 1.399a1.207 1.207 0 01-.947 1.19v.061a1.217 1.217 0 011.16 1.258 1.736 1.736 0 01-1.261 1.495c-.223.063-.457.08-.687.052a1.739 1.739 0 01-1.755-.881A1.725 1.725 0 0138 12.93h.778c.047.497.505.818 1.182.818.676 0 1.118-.36 1.118-.869 0-.515-.416-.833-1.143-.833h-.72v-.706zM42.792 13.233c0-.707.529-1.115 1.465-1.173l1.067-.06v-.34c0-.415-.275-.649-.807-.649-.433 0-.733.16-.82.437h-.753c.08-.675.717-1.107 1.61-1.107.987 0 1.544.49 1.544 1.32v2.682h-.749v-.552h-.061a1.323 1.323 0 01-1.183.617 1.193 1.193 0 01-1.208-.695 1.183 1.183 0 01-.105-.48zm2.532-.336v-.328l-.962.061c-.542.036-.788.22-.788.566 0 .354.307.56.73.56a.93.93 0 001.02-.859zM48.16 11.069v3.274h-.777v-3.926h2.593v.652H48.16zM54.685 12.378c0 1.248-.632 2.03-1.626 2.03a1.286 1.286 0 01-1.212-.66h-.062v1.9h-.777v-5.232h.748v.65h.058a1.366 1.366 0 011.237-.715c1.002 0 1.634.78 1.634 2.027zm-.799 0c0-.83-.394-1.33-1.052-1.33-.654 0-1.063.511-1.063 1.334 0 .818.409 1.33 1.06 1.33.661 0 1.055-.501 1.055-1.334zM55.72 15.75v-.668c.084.01.17.016.254.015a.675.675 0 00.712-.548l.058-.191-1.425-3.941h.846l.988 3.118h.06l.985-3.118h.824l-1.468 4.088c-.337.956-.709 1.262-1.512 1.262-.065 0-.249-.007-.322-.018zM59.627 13.229h.774c.076.346.401.527.856.527.518 0 .836-.228.836-.581 0-.379-.286-.56-.836-.56h-.589v-.601h.58c.469 0 .708-.18.708-.509 0-.288-.232-.508-.709-.508-.434 0-.752.184-.803.494h-.748a1.376 1.376 0 011.551-1.15c.936 0 1.471.422 1.471 1.085a.806.806 0 01-.621.804v.061a.884.884 0 01.77.884c0 .746-.637 1.24-1.61 1.24-.86 0-1.558-.393-1.63-1.186zM63.986 14.343v-3.926h.77v2.7h.062l1.815-2.7h.77v3.926h-.77v-2.715h-.058l-1.819 2.715h-.77zM71.646 11.069h-1.24v3.274h-.778V11.07h-1.24v-.652h3.258v.652zM75.832 13.283a1.596 1.596 0 01-1.707 1.136 1.795 1.795 0 01-1.38-.594 1.782 1.782 0 01-.439-1.433 1.806 1.806 0 011.06-1.894 1.82 1.82 0 01.756-.157c1.095 0 1.757.746 1.757 1.98v.27H73.1v.043a1.033 1.033 0 00.626 1.041c.134.057.277.086.422.084a.946.946 0 00.936-.476h.75zM73.1 12.018h1.988A.945.945 0 0074.118 11a1.007 1.007 0 00-1.02 1.018zM79.127 10.417h1.775c.77 0 1.222.389 1.222.998a.842.842 0 01-.665.83v.06a.9.9 0 01.842.906c0 .685-.517 1.132-1.38 1.132h-1.794v-3.926zm.77.594v1.017h.77c.47 0 .695-.18.695-.512 0-.306-.196-.505-.608-.505h-.857zm0 1.587v1.15h.921c.46 0 .706-.202.706-.573 0-.393-.278-.577-.803-.577h-.824zM24.937 20.301a4.948 4.948 0 012.357-4.152 5.065 5.065 0 00-3.992-2.157c-1.679-.177-3.307 1.004-4.162 1.004-.873 0-2.19-.987-3.609-.958a5.315 5.315 0 00-4.473 2.728c-1.934 3.349-.491 8.27 1.361 10.976.927 1.326 2.01 2.806 3.428 2.753 1.387-.057 1.905-.884 3.58-.884 1.658 0 2.144.884 3.59.851 1.489-.024 2.426-1.331 3.32-2.669a10.963 10.963 0 001.52-3.092 4.782 4.782 0 01-2.92-4.4zm-2.732-8.09a4.873 4.873 0 001.115-3.49 4.958 4.958 0 00-3.208 1.66 4.636 4.636 0 00-1.143 3.36 4.098 4.098 0 003.236-1.53zM42.471 27.14h-4.734L36.6 30.496h-2.005l4.484-12.418h2.083l4.483 12.418h-2.039L42.47 27.14zm-4.244-1.55h3.752l-1.85-5.446h-.051l-1.85 5.447zm17.1.38c0 2.813-1.505 4.62-3.777 4.62a3.068 3.068 0 01-2.849-1.584h-.043v4.485H46.8V21.442h1.798v1.506h.035a3.212 3.212 0 012.882-1.6c2.298 0 3.813 1.816 3.813 4.622zm-1.91 0c0-1.833-.947-3.039-2.392-3.039-1.42 0-2.375 1.23-2.375 3.038 0 1.825.955 3.046 2.375 3.046 1.446 0 2.393-1.196 2.393-3.046zm11.876 0c0 2.813-1.506 4.62-3.779 4.62a3.07 3.07 0 01-2.848-1.584h-.043v4.485h-1.859V21.442h1.8v1.506h.033a3.212 3.212 0 012.883-1.6c2.298 0 3.813 1.816 3.813 4.621zm-1.91 0c0-1.834-.948-3.039-2.393-3.039-1.42 0-2.375 1.23-2.375 3.038 0 1.825.955 3.046 2.375 3.046 1.445 0 2.393-1.196 2.393-3.046zm8.496 1.066c.137 1.232 1.334 2.04 2.968 2.04 1.567 0 2.694-.808 2.694-1.919 0-.964-.68-1.54-2.29-1.936l-1.609-.388c-2.28-.55-3.338-1.617-3.338-3.348 0-2.142 1.867-3.614 4.518-3.614 2.624 0 4.423 1.472 4.483 3.614H77.43c-.112-1.239-1.136-1.987-2.633-1.987s-2.522.757-2.522 1.858c0 .878.654 1.395 2.255 1.79l1.368.336c2.548.603 3.607 1.626 3.607 3.443 0 2.323-1.85 3.778-4.794 3.778-2.754 0-4.614-1.42-4.734-3.667h1.903zM83.514 19.3v2.142h1.722v1.472h-1.722v4.991c0 .776.345 1.137 1.102 1.137.204-.004.408-.018.611-.043v1.463c-.34.064-.686.092-1.032.086-1.833 0-2.548-.689-2.548-2.444v-5.19h-1.316v-1.472h1.316V19.3h1.867zm2.72 6.67c0-2.849 1.677-4.639 4.293-4.639 2.625 0 4.295 1.79 4.295 4.639 0 2.856-1.661 4.638-4.295 4.638-2.633 0-4.294-1.782-4.294-4.638zm6.695 0c0-1.954-.896-3.108-2.402-3.108-1.506 0-2.4 1.162-2.4 3.108 0 1.962.894 3.106 2.4 3.106 1.506 0 2.401-1.144 2.401-3.106zm3.425-4.528h1.773v1.541h.043a2.16 2.16 0 012.177-1.636c.215 0 .428.023.637.07v1.738a2.594 2.594 0 00-.835-.112 1.871 1.871 0 00-1.936 2.083v5.37h-1.859v-9.054zm13.198 6.395c-.25 1.643-1.85 2.771-3.898 2.771-2.634 0-4.269-1.764-4.269-4.595 0-2.84 1.644-4.682 4.191-4.682 2.505 0 4.08 1.72 4.08 4.466v.637h-6.395v.112a2.37 2.37 0 00.64 1.832 2.351 2.351 0 001.796.732 2.05 2.05 0 002.091-1.273h1.764zm-6.282-2.702h4.527A2.185 2.185 0 00106.451 23a2.174 2.174 0 00-.875-.163 2.293 2.293 0 00-2.306 2.298z" fill="#fff"/></g><defs><clipPath id="clip0_1002_3394"><path fill="#fff" d="M0 0h120v40H0z"/></clipPath></defs></svg>