<svg width="136" height="47" fill="none" xmlns="http://www.w3.org/2000/svg"><rect width="136" height="47" rx="7" fill="#002D77"/><path d="M92.396 22.561v2.692h-1.627v1.765h1.627v5.999c0 2.048.894 2.867 3.142 2.867a6.31 6.31 0 001.1-.107v-1.746c-.281.03-.46.049-.77.049-1.007 0-1.45-.488-1.45-1.6V27.02h2.22v-1.766h-2.22v-2.692h-2.022zM102.367 36.03c2.991 0 4.826-2.077 4.826-5.52 0-3.423-1.844-5.51-4.826-5.51-2.992 0-4.836 2.087-4.836 5.51 0 3.443 1.834 5.52 4.836 5.52zm0-1.862c-1.76 0-2.748-1.337-2.748-3.658 0-2.302.988-3.648 2.748-3.648 1.749 0 2.747 1.346 2.747 3.648 0 2.312-.998 3.658-2.747 3.658zM108.762 35.826h2.023v-6.272c0-1.492 1.082-2.496 2.615-2.496.358 0 .96.068 1.129.126v-2.067c-.216-.059-.602-.088-.903-.088-1.336 0-2.474.76-2.766 1.804h-.15v-1.629h-1.948v10.622zM119.551 26.784c1.496 0 2.474 1.083 2.521 2.75h-5.174c.113-1.657 1.157-2.75 2.653-2.75zm2.512 6.174c-.376.83-1.214 1.288-2.437 1.288-1.618 0-2.662-1.18-2.728-3.043v-.117h7.235v-.732c0-3.335-1.722-5.354-4.572-5.354-2.889 0-4.723 2.155-4.723 5.55 0 3.393 1.797 5.48 4.732 5.48 2.342 0 3.979-1.17 4.44-3.072h-1.947zM79.132 31.904c.156 2.608 2.252 4.276 5.373 4.276 3.334 0 5.42-1.75 5.42-4.54 0-2.193-1.189-3.406-4.075-4.104l-1.55-.394c-1.833-.445-2.574-1.041-2.574-2.082 0-1.315 1.15-2.174 2.876-2.174 1.638 0 2.77.84 2.974 2.184h2.126c-.127-2.457-2.214-4.186-5.07-4.186-3.072 0-5.12 1.73-5.12 4.327 0 2.143 1.16 3.417 3.706 4.034l1.813.455c1.862.455 2.681 1.122 2.681 2.234 0 1.294-1.287 2.234-3.042 2.234-1.882 0-3.188-.88-3.373-2.264h-2.165zM58.18 25.029c-1.393 0-2.597.721-3.218 1.931h-.15v-1.756h-1.948v14.153h2.023v-5.14h.16C55.583 35.338 56.74 36 58.199 36c2.587 0 4.233-2.116 4.233-5.49 0-3.375-1.647-5.482-4.252-5.482zm-.574 9.09c-1.694 0-2.757-1.385-2.757-3.599 0-2.224 1.063-3.609 2.766-3.609 1.712 0 2.738 1.356 2.738 3.6 0 2.252-1.026 3.608-2.747 3.608zM69.51 25.029c-1.393 0-2.597.721-3.218 1.931h-.15v-1.756h-1.948v14.153h2.023v-5.14h.16C66.913 35.338 68.07 36 69.528 36c2.587 0 4.234-2.116 4.234-5.49 0-3.375-1.647-5.482-4.253-5.482zm-.575 9.09c-1.693 0-2.756-1.385-2.756-3.599 0-2.224 1.063-3.609 2.766-3.609 1.712 0 2.738 1.356 2.738 3.6 0 2.252-1.026 3.608-2.748 3.608zM49.235 35.826h2.321l-5.08-14.588h-2.35l-5.08 14.588h2.243l1.297-3.872h5.362l1.287 3.872zm-4.046-11.94h.166l2.038 6.168H43.14l2.048-6.167zM40.405 10.235v7.038h2.45c2.023 0 3.194-1.293 3.194-3.541 0-2.214-1.18-3.497-3.194-3.497h-2.45zm1.053.995h1.28c1.406 0 2.239.927 2.239 2.517 0 1.614-.819 2.53-2.24 2.53h-1.279V11.23zM49.636 17.375c1.496 0 2.413-1.039 2.413-2.76 0-1.712-.922-2.756-2.413-2.756-1.495 0-2.417 1.044-2.417 2.756 0 1.721.917 2.76 2.417 2.76zm0-.931c-.88 0-1.373-.669-1.373-1.83 0-1.15.494-1.823 1.373-1.823.875 0 1.374.673 1.374 1.824 0 1.155-.499 1.829-1.374 1.829zM59.86 11.962h-1.01l-.913 4.052h-.08l-1.054-4.052h-.969l-1.054 4.052h-.075l-.917-4.052h-1.026l1.412 5.31h1.04l1.053-3.91h.08l1.058 3.91h1.049l1.406-5.31zM61.025 17.273h1.011v-3.107c0-.829.475-1.346 1.223-1.346.748 0 1.106.424 1.106 1.278v3.175h1.011v-3.439c0-1.263-.63-1.975-1.773-1.975-.772 0-1.28.356-1.529.946h-.075v-.843h-.974v5.31zM66.969 17.273h1.011V9.889H66.97v7.384zM71.784 17.375c1.495 0 2.413-1.039 2.413-2.76 0-1.712-.922-2.756-2.413-2.756-1.496 0-2.418 1.044-2.418 2.756 0 1.721.917 2.76 2.418 2.76zm0-.931c-.88 0-1.374-.669-1.374-1.83 0-1.15.494-1.823 1.374-1.823.874 0 1.373.673 1.373 1.824 0 1.155-.498 1.829-1.373 1.829zM77.21 16.478c-.55 0-.95-.278-.95-.756 0-.468.32-.717 1.025-.766l1.251-.083v.444c0 .658-.564 1.16-1.326 1.16zm-.259.882c.673 0 1.233-.302 1.538-.834h.08v.747h.974v-3.629c0-1.121-.725-1.785-2.009-1.785-1.161 0-1.99.586-2.093 1.498h.979c.112-.376.503-.59 1.067-.59.692 0 1.05.316 1.05.877v.459l-1.388.082c-1.219.079-1.905.63-1.905 1.585 0 .97.72 1.59 1.707 1.59zM82.975 17.36c.705 0 1.303-.346 1.609-.926h.08v.838h.968V9.89h-1.01v2.916h-.076c-.278-.585-.87-.931-1.571-.931-1.294 0-2.126 1.063-2.126 2.74 0 1.683.823 2.746 2.126 2.746zm.287-4.545c.846 0 1.378.698 1.378 1.805 0 1.112-.527 1.8-1.378 1.8-.856 0-1.37-.679-1.37-1.805 0-1.117.518-1.8 1.37-1.8zM92.19 17.375c1.496 0 2.413-1.039 2.413-2.76 0-1.712-.921-2.756-2.413-2.756-1.495 0-2.417 1.044-2.417 2.756 0 1.721.917 2.76 2.417 2.76zm0-.931c-.88 0-1.373-.669-1.373-1.83 0-1.15.494-1.823 1.373-1.823.875 0 1.374.673 1.374 1.824 0 1.155-.499 1.829-1.374 1.829zM95.942 17.273h1.012v-3.107c0-.829.475-1.346 1.222-1.346.748 0 1.106.424 1.106 1.278v3.175h1.011v-3.439c0-1.263-.63-1.975-1.773-1.975-.772 0-1.28.356-1.529.946h-.075v-.843h-.974v5.31zM104.951 10.64v1.346h-.814v.883h.814v2.999c0 1.024.447 1.434 1.571 1.434.197 0 .386-.025.55-.054v-.873c-.141.015-.23.025-.385.025-.504 0-.725-.244-.725-.8v-2.731h1.11v-.883h-1.11V10.64h-1.011zM108.43 17.273h1.011V14.17c0-.805.461-1.346 1.289-1.346.715 0 1.096.43 1.096 1.278v3.17h1.011v-3.429c0-1.263-.672-1.98-1.764-1.98-.771 0-1.312.356-1.561.951h-.08V9.89h-1.002v7.384zM116.485 12.752c.748 0 1.238.541 1.261 1.375h-2.587c.056-.829.579-1.375 1.326-1.375zm1.256 3.087c-.188.414-.606.644-1.218.644-.809 0-1.331-.59-1.364-1.522v-.059h3.617v-.365c0-1.668-.861-2.678-2.286-2.678-1.444 0-2.361 1.078-2.361 2.775 0 1.697.898 2.74 2.366 2.74 1.171 0 1.99-.584 2.22-1.535h-.974zM28.072 23.854c.024-1.976 1.047-3.845 2.67-4.88-1.024-1.515-2.739-2.477-4.523-2.534-1.903-.207-3.748 1.18-4.718 1.18-.989 0-2.482-1.16-4.09-1.126-2.095.07-4.05 1.306-5.069 3.206-2.192 3.934-.557 9.716 1.543 12.897 1.05 1.557 2.278 3.296 3.885 3.235 1.572-.068 2.159-1.04 4.056-1.04 1.88 0 2.43 1.04 4.07 1 1.687-.028 2.75-1.564 3.763-3.136a13.081 13.081 0 001.721-3.633c-1.982-.87-3.306-2.938-3.308-5.17zM24.976 14.348a5.866 5.866 0 001.263-4.101 5.556 5.556 0 00-3.636 1.95 5.626 5.626 0 00-1.296 3.95c1.406.014 2.788-.663 3.669-1.799z" fill="#fff"/></svg>