<svg id="logo" viewBox="0 0 1611 1062" fill="none" xmlns="http://www.w3.org/2000/svg">
	<path fill-rule="evenodd" clip-rule="evenodd" d="M73.114 870.111C37.5917 879.373 10.2644 907.018 1.97907 942.079C-1.44258 956.557 -0.307295 980.506 4.45678 994.343C14.23 1022.73 36.3268 1044.99 65.1309 1055.46L76.4775 1059.59L155.227 1060.05C242.984 1060.56 243.507 1060.52 265.212 1049.96C279.053 1043.23 296.907 1027.09 304.673 1014.28C321.911 985.838 323.329 950.757 308.468 920.454C300.297 903.79 281.694 885.326 265.071 877.376C244.312 867.447 240.127 867.046 157.907 867.112C91.299 867.168 83.3236 867.452 73.114 870.111ZM374.72 898.01C392.442 915.06 413.141 935.048 420.718 942.42L434.496 955.825L419.349 973.119C411.018 982.63 390.08 1006.51 372.82 1026.18L341.437 1061.94H388.639C431.356 1061.94 436.138 1061.68 438.952 1059.19C440.663 1057.68 452.246 1045.26 464.695 1031.6L487.329 1006.75L498.523 1017.44C504.68 1023.31 517.564 1035.74 527.154 1045.06L544.592 1061.98L598.929 1061.57L653.266 1061.16L596.103 1006.18C564.658 975.946 539.118 950.685 539.347 950.045C539.576 949.404 555.413 931.739 574.543 910.785C593.679 889.83 610.263 871.407 611.396 869.842C613.378 867.117 611.503 867.005 566.335 867.041L519.205 867.081L503.582 884.391L487.96 901.695L470.104 884.35L452.25 867H397.375H342.499L374.72 898.01ZM668.625 943.757C668.625 1029.93 668.559 1029.34 679.918 1042.17C683.831 1046.6 690.256 1051.26 696.797 1054.45L707.363 1059.59L805.79 1060.02L904.217 1060.46V1039.2V1017.93L833.459 1017.92C791.737 1017.91 760.399 1017.27 757.08 1016.35C748.77 1014.06 743.266 1007.48 741.38 997.602C740.47 992.828 739.779 962.815 739.779 928.099V867H704.202H668.625V943.757ZM935.84 963.684V1060.37H972.998H1010.16V996.956C1010.16 962.073 1010.63 918.568 1011.2 900.267L1012.24 867H974.04H935.84V963.684ZM1068.19 869.242C1059.38 871.596 1052.07 877.909 1049.62 885.275C1047.38 892.031 1047.24 899.479 1047.71 987.663L1048.11 1061.94H1086.05H1124V1022.64V983.337H1196.73H1269.47V962.901V942.46H1196.73H1124V925.171V907.877H1212.54H1301.09V887.441V867L1188.43 867.107C1101.71 867.188 1074.03 867.681 1068.19 869.242ZM1330.05 868.566C1324.56 870.797 1323.23 875.215 1323.23 891.264V906.306H1367.9C1417.99 906.311 1420.6 906.794 1426.74 917.307C1429.82 922.584 1429.98 925.72 1430.41 992.406L1430.87 1062L1468.36 1061.58L1505.85 1061.16L1506.26 983.729L1506.67 906.306H1558.83H1611V890.755C1611 877.792 1610.5 874.595 1607.98 871.499L1604.96 867.788L1469.23 867.478C1392.56 867.3 1332 867.773 1330.05 868.566ZM180.834 902.382C205.496 907.531 227.874 923.433 236.645 942.043C240.241 949.669 240.919 953.232 240.916 964.472C240.913 976.708 240.456 978.676 235.486 987.795C218.547 1018.88 174.435 1034.65 133.534 1024.25C118.151 1020.34 107.533 1014.65 96.2483 1004.29C83.3536 992.452 78.3987 982.503 77.6018 966.851C76.6783 948.688 80.7305 938.693 94.5167 925.141C115.886 904.13 148.286 895.585 180.834 902.382Z" fill="#E10600"/>
	<path d="M383.627 157.789C367.355 113.848 346.357 45.8883 336.542 5.38138L335.238 0H467.009H598.787L603.033 19.0793C622.612 106.966 655.631 229.753 675.551 288.721L686.821 322.073L682.467 334.707C650.784 426.689 718.315 521.242 815.657 521.207C828.547 521.201 841.145 519.966 849.125 517.923C867.849 513.131 895.685 498.787 908.664 487.238L919.978 477.176L922.187 482.706C923.402 485.747 928.236 498.954 932.931 512.055L941.474 535.872L924.338 542.056C879.777 558.131 845.689 564.19 798.926 564.348C744.633 564.534 716.638 558.814 674.899 539.016C555.005 482.142 455.537 351.949 383.627 157.789Z" fill="#E10600"/>
	<path d="M1011.43 27.396C1013.14 17.1714 1014.99 6.82554 1015.54 4.40294L1016.53 0H1155.28C1233.97 0 1294.03 0.745586 1294.03 1.72401C1294.03 2.67309 1288.34 23.1457 1281.38 47.221C1253.26 144.533 1219.17 230.252 1181.86 297.442C1167.85 322.666 1142.74 362.073 1140.78 361.915C1140.07 361.858 1134.36 355.387 1128.09 347.534C1088.77 298.325 1026.6 245.832 980.34 222.784C973.677 219.464 968.032 216.589 967.804 216.397C967.57 216.204 970.494 205.081 974.303 191.678C987.99 143.524 1003.4 75.3527 1011.43 27.396Z" fill="#E10600"/>
	<path d="M691.94 216.841C713.708 207.476 739.26 201.873 769.261 199.891C881.1 192.494 984.807 234.165 1072.61 321.774C1158.93 407.903 1227.76 536.303 1278.11 705.098C1286.08 731.819 1296 769.798 1296 769.798C1296 769.798 1233.17 771 1156.38 771H1016.77L1015.45 764.641C999.463 687.121 966.052 560.229 944.258 494.255L933.317 461.138L940.265 448.269C952.744 425.163 956.433 409.574 956.275 380.609C956.155 358.563 955.44 353.076 950.921 339.474C935.646 293.55 898.096 258.409 851.378 246.317C832.546 241.443 802.305 241.014 783.707 245.355C755.687 251.893 727.579 268.602 709.133 289.683L698.812 301.479L696.091 295.057C690.744 282.416 671.887 226.401 672.71 225.587C673.165 225.129 681.822 221.194 691.94 216.841Z" fill="#E10600"/>
	<path d="M341.946 737.736C372.497 620.656 418.34 506.186 466.75 426.106C475.046 412.385 482.316 401.156 482.905 401.156C483.5 401.156 485.031 402.827 486.316 404.868C492.757 415.126 522.081 449.389 539.305 466.791C569.761 497.56 607.887 527.419 637.742 543.888L645.861 548.364L641.108 565.264C626.902 615.821 611.652 684.109 603.04 735.78C600.793 749.233 598.477 762.66 597.895 765.621L596.826 771H464.953C340.296 771 333.134 770.816 334.067 767.577C334.608 765.697 338.156 752.264 341.946 737.736Z" fill="#E10600"/>
</svg>