<svg id="mail-glass" viewBox="0 0 89 90" fill="none" xmlns="http://www.w3.org/2000/svg">
	<path d="M54.0877 17.5567C51.1765 15.8718 47.7135 15.426 44.4706 16.2949L20.5803 22.6963C13.8067 24.5113 9.80818 31.4404 11.616 38.1875L16.7351 57.2919C18.5429 64.039 25.4945 68.034 32.2439 66.2255L56.1342 59.8242C62.8836 58.0156 66.9087 51.0794 65.1009 44.3324L59.9818 25.2279C59.1135 21.9874 57 19.236 54.0877 17.5567Z" fill="url(#paint0_linear_498_23451)"/>
	<path opacity="0.32" d="M54.0877 17.5567C51.1765 15.8718 47.7135 15.426 44.4706 16.2949L20.5803 22.6963C13.8067 24.5113 9.80818 31.4404 11.616 38.1875L16.7351 57.2919C18.5429 64.039 25.4945 68.034 32.2439 66.2255L56.1342 59.8242C62.8836 58.0156 66.9087 51.0794 65.1009 44.3324L59.9818 25.2279C59.1135 21.9874 57 19.236 54.0877 17.5567Z" fill="url(#paint1_linear_498_23451)"/>
	<g filter="url(#filter0_f_498_23451)">
		<path d="M47.4706 23.8401C45.6338 22.7139 43.4615 22.394 41.4377 22.9363L26.5286 26.9311C22.3015 28.0638 19.8538 32.5657 21.0408 36.9955L24.4017 49.5389C25.5887 53.9688 29.9745 56.6396 34.1866 55.511L49.0956 51.5161C53.3077 50.3875 55.772 45.8812 54.585 41.4513L51.2241 28.9079C50.654 26.7803 49.308 24.9627 47.4706 23.8401Z" fill="#fb010c"/>
	</g>
	<g filter="url(#filter1_b_498_23451)">
		<path d="M76.5177 30.1568C73.8659 27.4993 70.2611 26.0183 66.5138 26.0183H38.9078C31.0806 26.0183 24.7681 32.3337 24.7681 40.1301V62.2059C24.7681 70.0023 31.1086 76.3177 38.9078 76.3177H66.5138C74.313 76.3177 80.6563 70.0023 80.6563 62.2059V40.1301C80.6563 36.3856 79.1724 32.8087 76.5177 30.1568Z" fill="#fd676d" fill-opacity="0.5"/>
	</g>
	<g filter="url(#filter2_bd_498_23451)">
		<path d="M71.1834 44.07L70.9599 44.2935L58.3543 54.3813C56.7922 55.6109 54.8613 56.2815 52.8801 56.2815C50.8932 56.2815 48.9958 55.6109 47.431 54.3813L34.7164 44.4612L34.3503 44.0979C33.7104 43.2596 33.7942 42.058 34.5487 41.3035C35.2725 40.549 36.4741 40.4652 37.3431 41.1079L49.918 51.1678C51.5639 52.5119 53.886 52.5119 55.5068 51.1678L68.1068 41.1079C68.5288 40.7167 69.0876 40.5183 69.6745 40.549C70.2306 40.6049 70.7643 40.8592 71.1527 41.2755C71.8513 42.0859 71.8513 43.2596 71.1834 44.07Z" fill="url(#paint2_linear_498_23451)"/>
	</g>
	<defs>
		<filter id="filter0_f_498_23451" x="4.74139" y="6.67871" width="66.1418" height="65.0908" filterUnits="userSpaceOnUse" color-interpolation-filters="sRGB">
			<feFlood flood-opacity="0" result="BackgroundImageFix"/>
			<feBlend mode="normal" in="SourceGraphic" in2="BackgroundImageFix" result="shape"/>
			<feGaussianBlur stdDeviation="8" result="effect1_foregroundBlur_498_23451"/>
		</filter>
		<filter id="filter1_b_498_23451" x="9.76807" y="11.0183" width="85.8882" height="80.2993" filterUnits="userSpaceOnUse" color-interpolation-filters="sRGB">
			<feFlood flood-opacity="0" result="BackgroundImageFix"/>
			<feGaussianBlur in="BackgroundImageFix" stdDeviation="7.5"/>
			<feComposite in2="SourceAlpha" operator="in" result="effect1_backgroundBlur_498_23451"/>
			<feBlend mode="normal" in="SourceGraphic" in2="effect1_backgroundBlur_498_23451" result="shape"/>
		</filter>
		<filter id="filter2_bd_498_23451" x="18.9213" y="25.5459" width="67.7593" height="45.7356" filterUnits="userSpaceOnUse" color-interpolation-filters="sRGB">
			<feFlood flood-opacity="0" result="BackgroundImageFix"/>
			<feGaussianBlur in="BackgroundImageFix" stdDeviation="7.5"/>
			<feComposite in2="SourceAlpha" operator="in" result="effect1_backgroundBlur_498_23451"/>
			<feColorMatrix in="SourceAlpha" type="matrix" values="0 0 0 0 0 0 0 0 0 0 0 0 0 0 0 0 0 0 127 0" result="hardAlpha"/>
			<feOffset dx="5" dy="5"/>
			<feGaussianBlur stdDeviation="5"/>
			<feColorMatrix type="matrix" values="0 0 0 0 0.341905 0 0 0 0 0.426091 0 0 0 0 0.0215334 0 0 0 0.5 0"/>
			<feBlend mode="normal" in2="effect1_backgroundBlur_498_23451" result="effect2_dropShadow_498_23451"/>
			<feBlend mode="normal" in="SourceGraphic" in2="effect2_dropShadow_498_23451" result="shape"/>
		</filter>
		<linearGradient id="paint0_linear_498_23451" x1="8.34375" y1="25.9751" x2="64.5204" y2="62.4745" gradientUnits="userSpaceOnUse">
			<stop stop-color="#fb010c"/>
			<stop offset="1" stop-color="#ba2423"/>
		</linearGradient>
		<linearGradient id="paint1_linear_498_23451" x1="8.34375" y1="25.9751" x2="64.5204" y2="62.4745" gradientUnits="userSpaceOnUse">
			<stop stop-color="#fb010c"/>
			<stop offset="1" stop-color="#ba2423"/>
		</linearGradient>
		<linearGradient id="paint2_linear_498_23451" x1="69.0035" y1="43.3874" x2="27.1546" y2="46.6616" gradientUnits="userSpaceOnUse">
			<stop stop-color="white"/>
			<stop offset="1" stop-color="white" stop-opacity="0.2"/>
		</linearGradient>
	</defs>
</svg>