<svg id="arrow-up" viewBox="0 0 24 24" xmlns="http://www.w3.org/2000/svg">
	<path d="M12 2.25C12.1989 2.25 12.3897 2.32902 12.5303 2.46967L19.5303 9.46967C19.8232 9.76256 19.8232 10.2374 19.5303 10.5303C19.2374 10.8232 18.7626 10.8232 18.4697 10.5303L12.75 4.81066L12.75 21C12.75 21.4142 12.4142 21.75 12 21.75C11.5858 21.75 11.25 21.4142 11.25 21L11.25 4.81066L5.53033 10.5303C5.23744 10.8232 4.76256 10.8232 4.46967 10.5303C4.17678 10.2374 4.17678 9.76256 4.46967 9.46967L11.4697 2.46967C11.6103 2.32902 11.8011 2.25 12 2.25Z"/>
</svg>