<svg id="box" viewBox="0 0 24 24" xmlns="http://www.w3.org/2000/svg">
	<path fill-rule="evenodd" clip-rule="evenodd" d="M14.4476 1.8115L19.7935 4.78488C20.5441 5.20071 21.1833 5.89978 21.6322 6.66101C22.0811 7.42244 22.3832 8.31913 22.3832 9.17613V14.8339C22.3832 15.6909 22.0811 16.5876 21.6322 17.3491C21.1834 18.1101 20.5451 18.8087 19.7947 19.2245L19.7935 19.2252L14.4474 22.1986L14.4456 22.1996C13.7357 22.5919 12.8489 22.7663 12.005 22.7663C11.1611 22.7663 10.2743 22.5919 9.56437 22.1996L9.56259 22.1986L4.21647 19.2252C3.46584 18.8094 2.82675 18.1104 2.37785 17.3491C1.92888 16.5876 1.62677 15.6909 1.62677 14.8339V9.17613C1.62677 8.31913 1.92888 7.42244 2.37785 6.66101C2.82672 5.89975 3.46522 5.20107 4.21581 4.78525L9.55998 1.8129L9.56137 1.81213C10.2717 1.41378 11.1568 1.23622 12.0012 1.23621C12.8465 1.23619 13.7335 1.41413 14.4476 1.8115ZM12.0012 2.73621C11.3416 2.73622 10.7253 2.87889 10.2943 3.12088L10.2917 3.12234L8.77638 3.96513L17.0631 8.75034L20.0657 7.01111C19.7648 6.61018 19.4153 6.29005 19.0669 6.09714L19.0657 6.09645L13.7183 3.12229C13.2808 2.87883 12.6605 2.7362 12.0012 2.73621ZM16.25 10.9548V13.2399C16.25 13.6542 16.5858 13.9899 17 13.9899C17.4142 13.9899 17.75 13.6542 17.75 13.2399V10.0859L20.7498 8.34828C20.8373 8.63866 20.8832 8.9205 20.8832 9.17613V14.8339C20.8832 15.3588 20.6897 15.9942 20.3401 16.5872C19.9905 17.18 19.5277 17.6578 19.0669 17.9129L13.7201 20.8867C13.4563 21.0324 13.1213 21.1421 12.75 21.205V12.9822L16.25 10.9548ZM15.5656 9.61775L7.24844 4.81494L4.94433 6.09646L4.94309 6.09714C4.59263 6.2912 4.24102 6.61402 3.93894 7.01832L11.9999 11.6832L15.5656 9.61775ZM3.12677 9.17613C3.12677 8.92308 3.17176 8.64434 3.25753 8.35705L11.25 12.9824V21.2033C10.8826 21.1401 10.5519 21.0315 10.2904 20.887L4.94433 17.9136L4.94309 17.9129C4.4823 17.6578 4.01953 17.18 3.66995 16.5872C3.32033 15.9942 3.12677 15.3588 3.12677 14.8339V9.17613Z"/>
</svg>