<svg id="call-calling" viewBox="0 0 24 24" xmlns="http://www.w3.org/2000/svg">
	<path fill-rule="evenodd" clip-rule="evenodd" d="M5.59 2.75C5.08187 2.75 4.56293 2.95593 4.03614 3.47449L4.03046 3.48008L4.02467 3.48555C3.56991 3.91456 3.25506 4.38355 3.05792 4.88459L3.05637 4.88855C2.85415 5.39409 2.75 5.94888 2.75 6.54C2.75 7.46267 2.96266 8.45326 3.41075 9.51784C3.86508 10.5871 4.49486 11.678 5.28763 12.7804C6.09353 13.8871 6.99753 14.9469 8.00036 15.9597C9.01357 16.9629 10.0742 17.8676 11.1924 18.6844C12.2912 19.4843 13.3918 20.1146 14.484 20.58C15.5587 21.0379 16.5486 21.25 17.45 21.25C18.0548 21.25 18.6064 21.1382 19.1115 20.9277L19.1156 20.926C19.6104 20.7232 20.0604 20.4034 20.4843 19.9364C20.7219 19.6742 20.9016 19.3967 21.0418 19.0997C21.1653 18.8383 21.22 18.5775 21.22 18.33C21.22 18.1689 21.1879 18.0176 21.1189 17.8418C21.0719 17.74 20.9913 17.6362 20.8331 17.5266L20.8258 17.5216L17.5222 15.1761C17.3028 15.0273 17.1216 14.9278 16.966 14.8642C16.8238 14.806 16.7201 14.79 16.64 14.79C16.5438 14.79 16.4472 14.8132 16.32 14.8906L16.2988 14.9035L16.2769 14.9149C16.1389 14.987 15.96 15.1207 15.7403 15.3403L15.7368 15.3438L14.9782 16.0924C14.7355 16.3341 14.4185 16.48 14.04 16.48C13.8919 16.48 13.7163 16.4633 13.5267 16.3922L13.5105 16.3862L13.4946 16.3794C13.4533 16.3617 13.4149 16.3441 13.3878 16.3316L13.38 16.328C13.3476 16.3132 13.3366 16.3084 13.3315 16.3064L13.2944 16.2915L13.2591 16.2728C12.8536 16.0582 12.3777 15.7213 11.8355 15.2625L11.8346 15.2617C11.2851 14.7952 10.7507 14.2912 10.2046 13.7553L10.1996 13.7503L10.1946 13.7453C9.66123 13.2016 9.1705 12.6596 8.71287 12.1308L8.70743 12.1245C8.25416 11.5888 7.90702 11.1141 7.69158 10.7191L7.6596 10.6605L7.63858 10.5975C7.63857 10.5975 7.63602 10.5904 7.62302 10.5597C7.62193 10.5571 7.62075 10.5543 7.61949 10.5514C7.60703 10.522 7.58735 10.4756 7.56775 10.4233L7.55275 10.3833L7.54239 10.3419C7.51008 10.2127 7.49 10.081 7.49 9.93C7.49 9.59078 7.6056 9.26699 7.86359 9.00579L8.62454 8.2148L8.62967 8.20967C8.83569 8.00365 8.97896 7.81685 9.06708 7.66096L9.07305 7.6504L9.07935 7.64004C9.15514 7.51553 9.18 7.40903 9.18 7.32C9.18 7.25575 9.16141 7.14722 9.10064 7.00544L9.09574 6.99401C9.03236 6.83908 8.93418 6.66049 8.78135 6.44823L8.7783 6.44399L6.45331 3.16694C6.35577 3.02604 6.23429 2.92955 6.08571 2.86097L6.07541 2.85622C5.9331 2.78791 5.76498 2.75 5.59 2.75ZM2.98958 2.39989C3.74153 1.66198 4.62059 1.25 5.59 1.25C5.97318 1.25 6.36311 1.33138 6.71942 1.5014C7.08756 1.6723 7.4231 1.93394 7.68397 2.30924L10.0002 5.57397C10.2053 5.85902 10.3657 6.13792 10.4818 6.4203C10.5997 6.69706 10.68 7.00642 10.68 7.32C10.68 7.70686 10.5673 8.07662 10.3671 8.40937C10.1968 8.70783 9.96427 8.99567 9.69563 9.26502L9.00688 9.98096C9.01385 9.99743 9.02321 10.0197 9.03333 10.0455C9.18299 10.3079 9.44801 10.6772 9.84987 11.1524C10.29 11.6609 10.7568 12.1761 11.2604 12.6897C11.7923 13.2116 12.2961 13.6858 12.8048 14.1177C13.2858 14.5247 13.6606 14.7841 13.933 14.9322C13.955 14.9417 13.9753 14.9509 13.9918 14.9584L14.6815 14.2778C14.955 14.0046 15.2482 13.7638 15.5612 13.5966C15.8882 13.4019 16.2447 13.29 16.64 13.29C16.9399 13.29 17.2362 13.354 17.534 13.4758C17.8169 13.5916 18.0939 13.7509 18.3717 13.9398L18.378 13.9441L21.6908 16.296C22.0454 16.5424 22.3233 16.8545 22.4965 17.2479L22.5016 17.2596L22.5064 17.2715C22.6338 17.59 22.72 17.9351 22.72 18.33C22.72 18.8025 22.6147 19.2817 22.3982 19.7403C22.1984 20.1633 21.9381 20.5658 21.5957 20.9436C21.0402 21.5559 20.4107 22.0159 19.6865 22.3131C18.9922 22.6021 18.2445 22.75 17.45 22.75C16.3114 22.75 15.1213 22.4821 13.896 21.96C12.6885 21.4455 11.4895 20.7561 10.3086 19.8963L10.3076 19.8956C9.12671 19.0331 8.00824 18.0786 6.94224 17.0229L6.93709 17.0178C5.88147 15.9519 4.92677 14.8332 4.07368 13.6614L4.07114 13.658C3.22474 12.4813 2.5351 11.293 2.0297 10.1032L2.02877 10.101C1.51719 8.88605 1.25 7.69701 1.25 6.54C1.25 5.77184 1.3856 5.02732 1.66286 4.33342C1.94486 3.61753 2.38783 2.96904 2.98958 2.39989ZM14.25 2C14.25 1.58579 14.5858 1.25 15 1.25C19.2842 1.25 22.75 4.71579 22.75 9C22.75 9.41421 22.4142 9.75 22 9.75C21.5858 9.75 21.25 9.41421 21.25 9C21.25 5.54421 18.4558 2.75 15 2.75C14.5858 2.75 14.25 2.41421 14.25 2ZM14.25 5.5C14.25 5.08579 14.5858 4.75 15 4.75C16.1417 4.75 17.1765 5.46194 17.8791 6.21911C18.2734 6.64175 18.6064 7.11524 18.8445 7.57833C19.075 8.02657 19.25 8.53018 19.25 9C19.25 9.41421 18.9142 9.75 18.5 9.75C18.0858 9.75 17.75 9.41421 17.75 9C17.75 8.86982 17.69 8.61343 17.5105 8.26417C17.3387 7.93008 17.087 7.56889 16.7817 7.24174L16.7801 7.24003C16.2027 6.61753 15.5379 6.25 15 6.25C14.5858 6.25 14.25 5.91421 14.25 5.5Z"/>
</svg>