<svg id="call-calling" viewBox="0 0 12 12" xmlns="http://www.w3.org/2000/svg">
	<path d="M11.0689 8.42539C10.2615 8.42539 9.47368 8.29517 8.74444 8.05426C8.67933 8.02821 8.60771 8.0217 8.54259 8.0217C8.37331 8.0217 8.21053 8.08682 8.0803 8.21053L6.64786 9.64297C4.80521 8.69886 3.29463 7.19479 2.35703 5.35214L3.78947 3.9197C3.97178 3.73739 4.02387 3.48345 3.95225 3.25556C3.71134 2.52632 3.58112 1.74498 3.58112 0.931091C3.58112 0.572979 3.28812 0.279978 2.93001 0.279978H0.651112C0.293001 0.279978 0 0.572979 0 0.931091C0 7.04504 4.95496 12 11.0689 12C11.427 12 11.72 11.707 11.72 11.3489V9.07651C11.72 8.71839 11.427 8.42539 11.0689 8.42539ZM1.32176 1.5822H2.29843C2.344 2.16169 2.44167 2.72816 2.59794 3.26858L1.8166 4.04992C1.54965 3.26858 1.38036 2.44167 1.32176 1.5822ZM10.4178 10.6782C9.55833 10.6196 8.73142 10.4504 7.94357 10.1899L8.71839 9.41508C9.27184 9.57135 9.83831 9.66902 10.4113 9.70808V10.6782H10.4178ZM9.76668 4.18665H8.0803L11.3489 0.918068L10.4308 0L7.16224 3.26858V1.5822H5.86001V5.48888H9.76668V4.18665Z"></path>
</svg>