<svg id="catalog" viewBox="0 0 24 24" xmlns="http://www.w3.org/2000/svg">
	<path d="M2 4.25C1.58579 4.25 1.25 4.58579 1.25 5C1.25 5.41421 1.58579 5.75 2 5.75H6.49469C6.9089 5.75 7.24469 5.41421 7.24469 5C7.24469 4.58579 6.9089 4.25 6.49469 4.25H2Z"/>
	<path fill-rule="evenodd" clip-rule="evenodd" d="M14.8743 4.25C10.8947 4.25 7.71112 7.57872 7.71112 11.6316C7.71112 15.6844 10.8947 19.0132 14.8743 19.0132C16.5874 19.0132 18.153 18.3963 19.3807 17.3703L21.4609 19.5214C21.7488 19.8191 22.2236 19.8271 22.5214 19.5391C22.8191 19.2512 22.8271 18.7764 22.5391 18.4786L20.4271 16.2946C21.4352 15.0202 22.0374 13.3944 22.0374 11.6316C22.0374 7.57872 18.8539 4.25 14.8743 4.25ZM9.21112 11.6316C9.21112 8.3594 11.7701 5.75 14.8743 5.75C17.9785 5.75 20.5374 8.3594 20.5374 11.6316C20.5374 14.9038 17.9785 17.5132 14.8743 17.5132C11.7701 17.5132 9.21112 14.9038 9.21112 11.6316Z"/>
	<path d="M2 11.2217C1.58579 11.2217 1.25 11.5574 1.25 11.9717C1.25 12.3859 1.58579 12.7217 2 12.7217H4.24735C4.66156 12.7217 4.99735 12.3859 4.99735 11.9717C4.99735 11.5574 4.66156 11.2217 4.24735 11.2217H2Z"/>
	<path d="M2 18.1933C1.58579 18.1933 1.25 18.5291 1.25 18.9433C1.25 19.3575 1.58579 19.6933 2 19.6933H6.49469C6.9089 19.6933 7.24469 19.3575 7.24469 18.9433C7.24469 18.5291 6.9089 18.1933 6.49469 18.1933H2Z"/>
</svg>