<svg id="category" viewBox="0 0 15 15" xmlns="http://www.w3.org/2000/svg">
	<path d="M0 7.33333C0 7.88562 0.447715 8.33333 1 8.33333H5.66667C6.21895 8.33333 6.66667 7.88562 6.66667 7.33333V1C6.66667 0.447715 6.21895 0 5.66667 0H0.999999C0.447714 0 0 0.447715 0 1V7.33333ZM0 14C0 14.5523 0.447715 15 1 15H5.66667C6.21895 15 6.66667 14.5523 6.66667 14V11C6.66667 10.4477 6.21895 10 5.66667 10H0.999999C0.447714 10 0 10.4477 0 11V14ZM8.33333 14C8.33333 14.5523 8.78105 15 9.33333 15H14C14.5523 15 15 14.5523 15 14V7.66667C15 7.11438 14.5523 6.66667 14 6.66667H9.33333C8.78105 6.66667 8.33333 7.11438 8.33333 7.66667V14ZM9.33333 0C8.78105 0 8.33333 0.447715 8.33333 1V4C8.33333 4.55228 8.78105 5 9.33333 5H14C14.5523 5 15 4.55228 15 4V1C15 0.447715 14.5523 0 14 0H9.33333Z"></path>
</svg>