<svg id="category" viewBox="0 0 24 24" xmlns="http://www.w3.org/2000/svg">
	<path fill-rule="evenodd" clip-rule="evenodd" d="M5 1.25C3.88439 1.25 2.90993 1.52941 2.21967 2.21967C1.52941 2.90993 1.25 3.88439 1.25 5V7C1.25 8.11561 1.52941 9.09007 2.21967 9.78033C2.90993 10.4706 3.88439 10.75 5 10.75H7C8.11561 10.75 9.09007 10.4706 9.78033 9.78033C10.4706 9.09007 10.75 8.11561 10.75 7V5C10.75 3.88439 10.4706 2.90993 9.78033 2.21967C9.09007 1.52941 8.11561 1.25 7 1.25H5ZM2.75 5C2.75 4.11561 2.97059 3.59007 3.28033 3.28033C3.59007 2.97059 4.11561 2.75 5 2.75H7C7.88439 2.75 8.40993 2.97059 8.71967 3.28033C9.02941 3.59007 9.25 4.11561 9.25 5V7C9.25 7.88439 9.02941 8.40993 8.71967 8.71967C8.40993 9.02941 7.88439 9.25 7 9.25H5C4.11561 9.25 3.59007 9.02941 3.28033 8.71967C2.97059 8.40993 2.75 7.88439 2.75 7V5Z"/>
	<path fill-rule="evenodd" clip-rule="evenodd" d="M17 1.25C15.8844 1.25 14.9099 1.52941 14.2197 2.21967C13.5294 2.90993 13.25 3.88439 13.25 5V7C13.25 8.11561 13.5294 9.09007 14.2197 9.78033C14.9099 10.4706 15.8844 10.75 17 10.75H19C20.1156 10.75 21.0901 10.4706 21.7803 9.78033C22.4706 9.09007 22.75 8.11561 22.75 7V5C22.75 3.88439 22.4706 2.90993 21.7803 2.21967C21.0901 1.52941 20.1156 1.25 19 1.25H17ZM14.75 5C14.75 4.11561 14.9706 3.59007 15.2803 3.28033C15.5901 2.97059 16.1156 2.75 17 2.75H19C19.8844 2.75 20.4099 2.97059 20.7197 3.28033C21.0294 3.59007 21.25 4.11561 21.25 5V7C21.25 7.88439 21.0294 8.40993 20.7197 8.71967C20.4099 9.02941 19.8844 9.25 19 9.25H17C16.1156 9.25 15.5901 9.02941 15.2803 8.71967C14.9706 8.40993 14.75 7.88439 14.75 7V5Z"/>
	<path fill-rule="evenodd" clip-rule="evenodd" d="M14.2197 14.2197C14.9099 13.5294 15.8844 13.25 17 13.25H19C20.1156 13.25 21.0901 13.5294 21.7803 14.2197C22.4706 14.9099 22.75 15.8844 22.75 17V19C22.75 20.1156 22.4706 21.0901 21.7803 21.7803C21.0901 22.4706 20.1156 22.75 19 22.75H17C15.8844 22.75 14.9099 22.4706 14.2197 21.7803C13.5294 21.0901 13.25 20.1156 13.25 19V17C13.25 15.8844 13.5294 14.9099 14.2197 14.2197ZM15.2803 15.2803C14.9706 15.5901 14.75 16.1156 14.75 17V19C14.75 19.8844 14.9706 20.4099 15.2803 20.7197C15.5901 21.0294 16.1156 21.25 17 21.25H19C19.8844 21.25 20.4099 21.0294 20.7197 20.7197C21.0294 20.4099 21.25 19.8844 21.25 19V17C21.25 16.1156 21.0294 15.5901 20.7197 15.2803C20.4099 14.9706 19.8844 14.75 19 14.75H17C16.1156 14.75 15.5901 14.9706 15.2803 15.2803Z"/>
	<path fill-rule="evenodd" clip-rule="evenodd" d="M5 13.25C3.88439 13.25 2.90993 13.5294 2.21967 14.2197C1.52941 14.9099 1.25 15.8844 1.25 17V19C1.25 20.1156 1.52941 21.0901 2.21967 21.7803C2.90993 22.4706 3.88439 22.75 5 22.75H7C8.11561 22.75 9.09007 22.4706 9.78033 21.7803C10.4706 21.0901 10.75 20.1156 10.75 19V17C10.75 15.8844 10.4706 14.9099 9.78033 14.2197C9.09007 13.5294 8.11561 13.25 7 13.25H5ZM2.75 17C2.75 16.1156 2.97059 15.5901 3.28033 15.2803C3.59007 14.9706 4.11561 14.75 5 14.75H7C7.88439 14.75 8.40993 14.9706 8.71967 15.2803C9.02941 15.5901 9.25 16.1156 9.25 17V19C9.25 19.8844 9.02941 20.4099 8.71967 20.7197C8.40993 21.0294 7.88439 21.25 7 21.25H5C4.11561 21.25 3.59007 21.0294 3.28033 20.7197C2.97059 20.4099 2.75 19.8844 2.75 19V17Z"/>
</svg>