<svg id="checkbox-rec" viewBox="0 0 16 16" xmlns="http://www.w3.org/2000/svg">
	<path d="M7.70649 0.733398C6.60912 0.733395 5.74876 0.733392 5.05729 0.789888C4.35317 0.847416 3.77149 0.966501 3.24498 1.23477C2.37944 1.67579 1.67573 2.3795 1.23471 3.24504C0.96644 3.77155 0.847355 4.35323 0.789827 5.05735C0.733331 5.74883 0.733334 6.60917 0.733337 7.70654V8.29358C0.733334 9.39095 0.733331 10.2513 0.789827 10.9428C0.847355 11.6469 0.96644 12.2286 1.23471 12.7551C1.67573 13.6206 2.37944 14.3243 3.24498 14.7654C3.77149 15.0336 4.35317 15.1527 5.05729 15.2102C5.74877 15.2667 6.60912 15.2667 7.70651 15.2667H8.2935C9.39089 15.2667 10.2512 15.2667 10.9427 15.2102C11.6468 15.1527 12.2285 15.0336 12.755 14.7654C13.6206 14.3243 14.3243 13.6206 14.7653 12.7551C15.0336 12.2286 15.1527 11.6469 15.2102 10.9428C15.2667 10.2513 15.2667 9.39095 15.2667 8.29356V7.25932C15.2667 6.92795 14.998 6.65932 14.6667 6.65932C14.3353 6.65932 14.0667 6.92795 14.0667 7.25932V8.26673C14.0667 9.39674 14.0662 10.2082 14.0142 10.8451C13.9627 11.475 13.8638 11.8812 13.6961 12.2103C13.3701 12.8501 12.85 13.3702 12.2102 13.6962C11.8811 13.8639 11.4749 13.9628 10.845 14.0142C10.2081 14.0663 9.39668 14.0667 8.26667 14.0667H7.73334C6.60333 14.0667 5.79191 14.0663 5.155 14.0142C4.5251 13.9628 4.11891 13.8639 3.78977 13.6962C3.15002 13.3702 2.62988 12.8501 2.30392 12.2103C2.13621 11.8812 2.03731 11.475 1.98584 10.8451C1.9338 10.2082 1.93334 9.39674 1.93334 8.26673V7.7334C1.93334 6.60339 1.9338 5.79197 1.98584 5.15507C2.03731 4.52516 2.13621 4.11897 2.30392 3.78983C2.62988 3.15008 3.15002 2.62995 3.78977 2.30398C4.11891 2.13627 4.5251 2.03737 5.155 1.9859C5.79191 1.93387 6.60333 1.9334 7.73334 1.9334H10.963C11.2943 1.9334 11.563 1.66477 11.563 1.3334C11.563 1.00203 11.2943 0.733399 10.963 0.733399L7.70649 0.733398Z"/>
	<path d="M15.0909 3.091C15.3253 2.85668 15.3253 2.47678 15.0909 2.24247C14.8566 2.00815 14.4767 2.00815 14.2424 2.24247L8 8.48487L6.42427 6.90913C6.18995 6.67482 5.81005 6.67482 5.57574 6.90913C5.34143 7.14345 5.34143 7.52335 5.57574 7.75766L7.57574 9.75766C7.81005 9.99198 8.18995 9.99198 8.42427 9.75766L15.0909 3.091Z"/>
</svg>