<svg id="chevron-left" viewBox="0 0 24 24" xmlns="http://www.w3.org/2000/svg">
	<path d="M14.5303 5.46967C14.8232 5.76256 14.8232 6.23744 14.5303 6.53033L9.6617 11.399C9.45494 11.6057 9.33218 11.7293 9.24833 11.8281C9.19716 11.8884 9.17974 11.9178 9.17542 11.926C9.16048 11.9742 9.16048 12.0258 9.17541 12.074C9.17974 12.0822 9.19716 12.1116 9.24833 12.1719C9.33218 12.2707 9.45494 12.3943 9.6617 12.601L14.5303 17.4697C14.8232 17.7626 14.8232 18.2374 14.5303 18.5303C14.2374 18.8232 13.7626 18.8232 13.4697 18.5303L8.5825 13.6432C8.40042 13.4611 8.23319 13.2939 8.10483 13.1427C7.96643 12.9797 7.82974 12.7866 7.74987 12.5408C7.63566 12.1893 7.63566 11.8107 7.74987 11.4592C7.82974 11.2134 7.96643 11.0203 8.10483 10.8573C8.23319 10.7061 8.40042 10.5389 8.58251 10.3568C8.58867 10.3507 8.59485 10.3445 8.60104 10.3383L13.4697 5.46967C13.7626 5.17678 14.2374 5.17678 14.5303 5.46967Z"/>
</svg>