<svg id="chevron-up" viewBox="0 0 24 24" xmlns="http://www.w3.org/2000/svg">
	<path d="M12.3863 10.6396C12.1352 10.558 11.8648 10.558 11.6137 10.6396C11.5171 10.671 11.3904 10.7385 11.1708 10.9249C10.9444 11.117 10.6724 11.3883 10.2676 11.7931L6.53033 15.5303C6.23744 15.8232 5.76256 15.8232 5.46967 15.5303C5.17678 15.2374 5.17678 14.7626 5.46967 14.4697L9.22844 10.7109C9.60614 10.3332 9.9214 10.0179 10.2 9.78141C10.4906 9.53473 10.7902 9.32999 11.1502 9.21302C11.7025 9.03357 12.2975 9.03357 12.8498 9.21302C13.2098 9.32999 13.5094 9.53473 13.8 9.7814C14.0786 10.0179 14.3939 10.3332 14.7715 10.7109L18.5303 14.4697C18.8232 14.7626 18.8232 15.2374 18.5303 15.5303C18.2374 15.8232 17.7626 15.8232 17.4697 15.5303L13.7324 11.7931C13.3276 11.3883 13.0556 11.117 12.8292 10.9249C12.6096 10.7385 12.4829 10.671 12.3863 10.6396Z"/>
</svg>