<svg id="clock" viewBox="0 0 24 24" xmlns="http://www.w3.org/2000/svg">
	<path d="M12.38 7.51001C12.38 7.0958 12.0442 6.76001 11.63 6.76001C11.2158 6.76001 10.88 7.0958 10.88 7.51001V11.61C10.88 12.0865 11.0414 12.5639 11.266 12.9578C11.4904 13.3513 11.8184 13.7324 12.2266 13.9746L12.2277 13.9752L15.3257 15.824C15.6814 16.0363 16.1418 15.92 16.354 15.5644C16.5663 15.2087 16.45 14.7482 16.0943 14.536L12.9943 12.686L12.9924 12.6848C12.861 12.607 12.6994 12.4434 12.569 12.2147C12.4386 11.9861 12.38 11.7636 12.38 11.61V7.51001Z"/>
	<path fill-rule="evenodd" clip-rule="evenodd" d="M12 1.25C6.06579 1.25 1.25 6.06579 1.25 12C1.25 17.9342 6.06579 22.75 12 22.75C17.9342 22.75 22.75 17.9342 22.75 12C22.75 6.06579 17.9342 1.25 12 1.25ZM2.75 12C2.75 6.89421 6.89421 2.75 12 2.75C17.1058 2.75 21.25 6.89421 21.25 12C21.25 17.1058 17.1058 21.25 12 21.25C6.89421 21.25 2.75 17.1058 2.75 12Z"/>
</svg>