<svg id="company" viewBox="0 0 24 24" xmlns="http://www.w3.org/2000/svg">
	<path d="M14.75 8C14.75 7.58579 14.4142 7.25 14 7.25C13.5858 7.25 13.25 7.58579 13.25 8V13C13.25 13.4142 13.5858 13.75 14 13.75C14.4142 13.75 14.75 13.4142 14.75 13V8Z"/>
	<path d="M18 7.25C18.4142 7.25 18.75 7.58579 18.75 8V13C18.75 13.4142 18.4142 13.75 18 13.75C17.5858 13.75 17.25 13.4142 17.25 13V8C17.25 7.58579 17.5858 7.25 18 7.25Z"/>
	<path d="M6 12.25C6.41421 12.25 6.75 12.5858 6.75 13V17C6.75 17.4142 6.41421 17.75 6 17.75C5.58579 17.75 5.25 17.4142 5.25 17V13C5.25 12.5858 5.58579 12.25 6 12.25Z"/>
	<path fill-rule="evenodd" clip-rule="evenodd" d="M5 22.75C3.88439 22.75 2.90993 22.4706 2.21967 21.7803C1.52941 21.0901 1.25 20.1156 1.25 19V11C1.25 9.88439 1.52941 8.90993 2.21967 8.21967C2.75021 7.68913 3.44863 7.40131 4.25 7.29651V6C4.25 4.48579 5.48579 3.25 7 3.25H9.54923C9.70442 2.86204 9.92448 2.51486 10.2197 2.21967C10.9099 1.52941 11.8844 1.25 13 1.25H19C20.1156 1.25 21.0901 1.52941 21.7803 2.21967C22.4706 2.90993 22.75 3.88439 22.75 5V19C22.75 20.1156 22.4706 21.0901 21.7803 21.7803C21.0901 22.4706 20.1156 22.75 19 22.75H5ZM10.8573 4.064C10.9513 3.71176 11.1008 3.45981 11.2803 3.28033C11.5901 2.97059 12.1156 2.75 13 2.75H19C19.8844 2.75 20.4099 2.97059 20.7197 3.28033C21.0294 3.59007 21.25 4.11561 21.25 5V19C21.25 19.8844 21.0294 20.4099 20.7197 20.7197C20.4099 21.0294 19.8844 21.25 19 21.25H18.75V18C18.75 17.0358 17.9642 16.25 17 16.25H15C14.0358 16.25 13.25 17.0358 13.25 18V21.25H13C12.1156 21.25 11.5901 21.0294 11.2803 20.7197C10.9706 20.4099 10.75 19.8844 10.75 19V5C10.75 4.82531 10.7586 4.66463 10.7748 4.51684C10.7887 4.39789 10.8086 4.29094 10.8347 4.19325C10.846 4.15055 10.8535 4.10731 10.8573 4.064ZM14.75 21.25H17.25V18C17.25 17.8642 17.1358 17.75 17 17.75H15C14.8642 17.75 14.75 17.8642 14.75 18V21.25ZM9.80035 21.25C9.41379 20.6255 9.25 19.8541 9.25 19V8.75H5C4.11561 8.75 3.59007 8.97059 3.28033 9.28033C2.97059 9.59007 2.75 10.1156 2.75 11V19C2.75 19.8844 2.97059 20.4099 3.28033 20.7197C3.59007 21.0294 4.11561 21.25 5 21.25H9.80035ZM9.25 7.25V5C9.25 4.91637 9.25137 4.83301 9.25445 4.75H7C6.31421 4.75 5.75 5.31421 5.75 6V7.25H9.25Z"/>
</svg>