<svg id="compare" viewBox="0 0 24 24" xmlns="http://www.w3.org/2000/svg">
	<path d="M12.9976 2.5V3.5H19.9976V5.5H12.9976V19.5H16.9976V21.5H6.99757V19.5H10.9976V5.5H3.99757V3.5H10.9976V2.5H12.9976ZM4.99757 6.843L7.82557 9.672C8.38496 10.2314 8.7659 10.9442 8.92023 11.7201C9.07455 12.496 8.99533 13.3002 8.69257 14.0311C8.38981 14.762 7.87712 15.3867 7.21933 15.8262C6.56154 16.2658 5.78819 16.5004 4.99707 16.5004C4.20596 16.5004 3.4326 16.2658 2.77481 15.8262C2.11702 15.3867 1.60433 14.762 1.30157 14.0311C0.998817 13.3002 0.919592 12.496 1.07392 11.7201C1.22824 10.9442 1.60918 10.2314 2.16857 9.672L4.99757 6.843ZM18.9976 6.843L21.8256 9.672C22.385 10.2314 22.7659 10.9442 22.9202 11.7201C23.0746 12.496 22.9953 13.3002 22.6926 14.0311C22.3898 14.762 21.8771 15.3867 21.2193 15.8262C20.5615 16.2658 19.7882 16.5004 18.9971 16.5004C18.206 16.5004 17.4326 16.2658 16.7748 15.8262C16.117 15.3867 15.6043 14.762 15.3016 14.0311C14.9988 13.3002 14.9196 12.496 15.0739 11.7201C15.2282 10.9442 15.6092 10.2314 16.1686 9.672L18.9976 6.843ZM4.99757 9.672L3.58357 11.086C3.30381 11.3657 3.11327 11.722 3.03605 12.11C2.95883 12.498 2.9984 12.9002 3.14976 13.2657C3.30111 13.6311 3.55746 13.9435 3.88637 14.1633C4.21528 14.3831 4.60198 14.5004 4.99757 14.5004C5.39316 14.5004 5.77986 14.3831 6.10878 14.1633C6.43769 13.9435 6.69403 13.6311 6.84539 13.2657C6.99675 12.9002 7.03632 12.498 6.9591 12.11C6.88188 11.722 6.69134 11.3657 6.41157 11.086L4.99757 9.672ZM18.9976 9.672L17.5836 11.086C17.3038 11.3657 17.1133 11.722 17.036 12.11C16.9588 12.498 16.9984 12.9002 17.1498 13.2657C17.3011 13.6311 17.5575 13.9435 17.8864 14.1633C18.2153 14.3831 18.602 14.5004 18.9976 14.5004C19.3932 14.5004 19.7799 14.3831 20.1088 14.1633C20.4377 13.9435 20.694 13.6311 20.8454 13.2657C20.9967 12.9002 21.0363 12.498 20.9591 12.11C20.8819 11.722 20.6913 11.3657 20.4116 11.086L18.9976 9.672Z"></path>
</svg>