<svg id="copy" viewBox="0 0 24 24" xmlns="http://www.w3.org/2000/svg">
	<path fill-rule="evenodd" clip-rule="evenodd" d="M7.25 7.25V6.9C7.25 5.07603 7.6102 3.60414 8.60717 2.60717C9.60414 1.6102 11.076 1.25 12.9 1.25H17.1C18.924 1.25 20.3959 1.6102 21.3928 2.60717C22.3898 3.60414 22.75 5.07603 22.75 6.9V11.1C22.75 12.924 22.3898 14.3959 21.3928 15.3928C20.3959 16.3898 18.924 16.75 17.1 16.75H16.75V17.1C16.75 18.924 16.3898 20.3959 15.3928 21.3928C14.3959 22.3898 12.924 22.75 11.1 22.75H6.9C5.07603 22.75 3.60414 22.3898 2.60717 21.3928C1.6102 20.3959 1.25 18.924 1.25 17.1V12.9C1.25 11.076 1.6102 9.60414 2.60717 8.60717C3.60414 7.6102 5.07603 7.25 6.9 7.25H7.25ZM8.75 6.9C8.75 5.22397 9.0898 4.24586 9.66783 3.66783C10.2459 3.0898 11.224 2.75 12.9 2.75H17.1C18.776 2.75 19.7541 3.0898 20.3322 3.66783C20.9102 4.24586 21.25 5.22397 21.25 6.9V11.1C21.25 12.776 20.9102 13.7541 20.3322 14.3322C19.7541 14.9102 18.776 15.25 17.1 15.25H16.75V12.9C16.75 11.076 16.3898 9.60414 15.3928 8.60717C14.3959 7.6102 12.924 7.25 11.1 7.25H8.75V6.9ZM6.9 8.75C5.22397 8.75 4.24586 9.0898 3.66783 9.66783C3.0898 10.2459 2.75 11.224 2.75 12.9V17.1C2.75 18.776 3.0898 19.7541 3.66783 20.3322C4.24586 20.9102 5.22397 21.25 6.9 21.25H11.1C12.776 21.25 13.7541 20.9102 14.3322 20.3322C14.9102 19.7541 15.25 18.776 15.25 17.1V12.9C15.25 11.224 14.9102 10.2459 14.3322 9.66783C13.7541 9.0898 12.776 8.75 11.1 8.75H6.9Z"/>
</svg>