<svg id="cross" viewBox="0 0 16 16" xmlns="http://www.w3.org/2000/svg">
	<path d="M4.42429 3.57576C4.18997 3.34145 3.81007 3.34145 3.57576 3.57576C3.34145 3.81007 3.34145 4.18997 3.57576 4.42429L7.1515 8.00002L3.57576 11.5758C3.34145 11.8101 3.34145 12.19 3.57576 12.4243C3.81007 12.6586 4.18997 12.6586 4.42429 12.4243L8.00002 8.84855L11.5758 12.4243C11.8101 12.6586 12.19 12.6586 12.4243 12.4243C12.6586 12.19 12.6586 11.8101 12.4243 11.5758L8.84855 8.00002L12.4243 4.42429C12.6586 4.18997 12.6586 3.81007 12.4243 3.57576C12.19 3.34145 11.8101 3.34145 11.5758 3.57576L8.00002 7.1515L4.42429 3.57576Z"/>
</svg>