<svg id="delivery" viewBox="0 0 24 24" xmlns="http://www.w3.org/2000/svg">
	<path fill-rule="evenodd" clip-rule="evenodd" d="M1.25 8C1.25 7.58579 1.58579 7.25 2 7.25H8C8.41421 7.25 8.75 7.58579 8.75 8C8.75 8.41421 8.41421 8.75 8 8.75H2C1.58579 8.75 1.25 8.41421 1.25 8Z"/>
	<path fill-rule="evenodd" clip-rule="evenodd" d="M1.25 11C1.25 10.5858 1.58579 10.25 2 10.25H6C6.41421 10.25 6.75 10.5858 6.75 11C6.75 11.4142 6.41421 11.75 6 11.75H2C1.58579 11.75 1.25 11.4142 1.25 11Z"/>
	<path fill-rule="evenodd" clip-rule="evenodd" d="M1.25 14C1.25 13.5858 1.58579 13.25 2 13.25H4C4.41421 13.25 4.75 13.5858 4.75 14C4.75 14.4142 4.41421 14.75 4 14.75H2C1.58579 14.75 1.25 14.4142 1.25 14Z"/>
	<path fill-rule="evenodd" clip-rule="evenodd" d="M14.75 20C14.75 19.3096 15.3096 18.75 16 18.75C15.3142 18.75 14.75 19.3142 14.75 20ZM16 18.75C16.6904 18.75 17.25 19.3096 17.25 20C17.25 19.3142 16.6858 18.75 16 18.75Z"/>
	<path fill-rule="evenodd" clip-rule="evenodd" d="M6.75 20C6.75 19.3096 7.30964 18.75 8 18.75C7.31421 18.75 6.75 19.3142 6.75 20ZM8 18.75C8.69036 18.75 9.25 19.3096 9.25 20C9.25 19.3142 8.68579 18.75 8 18.75Z"/>
	<path fill-rule="evenodd" clip-rule="evenodd" d="M6 1.25C4.21734 1.25 2.66205 2.23671 1.8549 3.68484C1.65324 4.04665 1.78306 4.50344 2.14487 4.7051C2.50667 4.90676 2.96346 4.77694 3.16512 4.41513C3.71797 3.42326 4.78266 2.75 6 2.75H14.25V5V12C14.25 12.6858 13.6858 13.25 13 13.25H12C11.5858 13.25 11.25 13.5858 11.25 14C11.25 14.4142 11.5858 14.75 12 14.75H13C14.5142 14.75 15.75 13.5142 15.75 12V5.75H16.84C17.2855 5.75 17.701 5.99126 17.9303 6.38475L17.9314 6.38661L18.9985 8.25C18.0357 8.25159 17.25 9.03676 17.25 10V13C17.25 13.9642 18.0358 14.75 19 14.75H21.25V17C21.25 18.2458 20.2458 19.25 19 19.25H18.6457C18.3177 18.0981 17.2544 17.25 16 17.25C14.7456 17.25 13.6823 18.0981 13.3543 19.25H10.6457C10.3177 18.0981 9.25441 17.25 8 17.25C6.74559 17.25 5.68227 18.0981 5.35431 19.25H5C3.75421 19.25 2.75 18.2458 2.75 17C2.75 16.5858 2.41421 16.25 2 16.25C1.58579 16.25 1.25 16.5858 1.25 17C1.25 19.0742 2.92579 20.75 5 20.75L5.35431 20.7528C5.68169 21.9056 6.74224 22.75 8 22.75C9.25878 22.75 10.32 21.9043 10.6465 20.75H13.3535C13.68 21.9043 14.7412 22.75 16 22.75C17.2588 22.75 18.32 21.9043 18.6465 20.75H19C21.0742 20.75 22.75 19.0742 22.75 17V14V12C22.75 11.8698 22.7161 11.7418 22.6516 11.6286L20.9413 8.62813L19.2311 5.63767L19.2286 5.63341C18.7377 4.788 17.8339 4.25 16.84 4.25H15.75V2C15.75 1.58579 15.4142 1.25 15 1.25H6ZM19 9.75C18.8642 9.75 18.75 9.86421 18.75 10V13C18.75 13.1358 18.8642 13.25 19 13.25H21.25V12.1987L19.8542 9.75H19ZM6.75 20C6.75 19.3096 7.30964 18.75 8 18.75C8.69036 18.75 9.25 19.3096 9.25 20C9.25 20.6904 8.69036 21.25 8 21.25C7.30964 21.25 6.75 20.6904 6.75 20ZM14.75 20C14.75 19.3096 15.3096 18.75 16 18.75C16.6904 18.75 17.25 19.3096 17.25 20C17.25 20.6904 16.6904 21.25 16 21.25C15.3096 21.25 14.75 20.6904 14.75 20Z"/>
	<path fill-rule="evenodd" clip-rule="evenodd" d="M14.75 20C14.75 19.3096 15.3096 18.75 16 18.75C15.3142 18.75 14.75 19.3142 14.75 20ZM16 18.75C16.6858 18.75 17.25 19.3142 17.25 20C17.25 19.3096 16.6904 18.75 16 18.75Z"/>
</svg>