<svg id="edit" viewBox="0 0 24 24" xmlns="http://www.w3.org/2000/svg">
	<path fill-rule="evenodd" clip-rule="evenodd" d="M14.4771 4.46237C14.4721 4.46723 14.4672 4.47216 14.4623 4.47716L5.79168 13.1477C5.32831 13.611 5.02953 13.9097 4.78877 14.2549C4.57549 14.5607 4.39896 14.8905 4.26282 15.2376C4.10913 15.6294 4.02633 16.0437 3.89791 16.6862L3.26458 19.853C3.2154 20.0989 3.29236 20.3531 3.46968 20.5304C3.647 20.7077 3.9012 20.7847 4.1471 20.7355L7.31383 20.1021C7.95631 19.9737 8.37064 19.8909 8.76244 19.7372C9.10952 19.6011 9.43937 19.4246 9.74518 19.2113C10.0904 18.9705 10.3891 18.6718 10.8523 18.2084L19.5295 9.53124C19.5301 9.53067 19.5306 9.53009 19.5312 9.52951L20.6163 8.4445C21.0771 7.98445 21.4339 7.6283 21.6356 7.22112C22.0169 6.45172 22.0169 5.54838 21.6357 4.77897C21.4339 4.37178 21.0772 4.01564 20.6164 3.55557L20.5304 3.46975L20.4446 3.38383C19.9846 2.92301 19.6284 2.56627 19.2212 2.36448C18.4518 1.98317 17.5485 1.98316 16.7791 2.36445C16.3719 2.56623 16.0157 2.92296 15.5556 3.38377L14.4771 4.46237ZM17.4451 3.70847C17.7948 3.53516 18.2054 3.53516 18.5552 3.70848C18.7112 3.78579 18.8817 3.94234 19.4698 4.5304C20.0578 5.11844 20.2143 5.289 20.2916 5.445C20.4649 5.79473 20.4649 6.20534 20.2916 6.55507C20.2143 6.71106 20.0578 6.88163 19.4697 7.46966L18.7028 8.23664C17.1451 8.0954 15.9047 6.85506 15.7634 5.29739L16.5305 4.53036C17.1185 3.94232 17.2891 3.78578 17.4451 3.70847ZM17.4485 9.49089L9.83989 17.0995C9.31234 17.6271 9.11033 17.8253 8.88711 17.981C8.67788 18.1269 8.45219 18.2477 8.21471 18.3408C7.96136 18.4402 7.68437 18.4983 6.95279 18.6446L4.95608 19.044L5.35542 17.0473C5.50174 16.3157 5.55986 16.0387 5.65924 15.7854C5.75239 15.5479 5.87317 15.3222 6.0191 15.113C6.17478 14.8897 6.37301 14.6877 6.90057 14.1602L14.5092 6.55162C14.9843 7.92687 16.0732 9.01584 17.4485 9.49089Z"/>
</svg>