<svg id="eye-off" viewBox="0 0 24 24" xmlns="http://www.w3.org/2000/svg">
	<path fill-rule="evenodd" clip-rule="evenodd" d="M20.68 2.23C20.98 1.93 21.47 1.93 21.77 2.23C22.08 2.53001 22.08 3.01 21.77 3.31L3.31 21.77C3.16 21.92 2.97 22 2.77 22C2.57 22 2.38 21.92 2.23 21.78C1.93 21.48 1.93 20.99 2.23 20.69L5.16946 17.749C4.28367 16.9364 3.46603 15.9594 2.75 14.8401C1.75 13.2701 1.75 10.7201 2.75 9.15005C3.91 7.33005 5.33 5.90005 6.91 4.92005C8.49 3.96005 10.22 3.43005 12 3.43005C13.9861 3.43005 15.9167 4.08049 17.6292 5.28245L20.68 2.23ZM14.267 8.64645C13.6216 8.20868 12.8419 7.96005 12 7.96005C9.76 7.96005 7.96 9.77005 7.96 12.0001C7.96 12.8417 8.21409 13.6211 8.65014 14.2664L9.51436 13.4017C9.27837 12.985 9.14001 12.5051 9.14001 12C9.14001 10.43 10.42 9.14001 12 9.14001C12.5045 9.14001 12.9839 9.27807 13.4004 9.5136L14.267 8.64645Z"/>
	<path d="M21.27 9.18005C20.98 8.72005 20.67 8.29005 20.35 7.89005C19.98 7.42005 19.28 7.38005 18.86 7.80005L15.86 10.8001C16.08 11.4601 16.12 12.22 15.92 13.01C15.57 14.4201 14.43 15.5601 13.02 15.9101C12.23 16.1101 11.47 16.0701 10.81 15.8501L8.35001 18.3101C7.85001 18.8101 8.01001 19.6901 8.68001 19.9501C9.75001 20.3601 10.86 20.57 12 20.57C13.78 20.57 15.51 20.0501 17.09 19.0801C18.7 18.0801 20.15 16.6101 21.32 14.74C22.27 13.2301 22.22 10.6901 21.27 9.18005Z"/>
	<path d="M14.86 12C14.86 13.57 13.58 14.86 12 14.86C11.94 14.86 11.89 14.86 11.83 14.84L14.84 11.83C14.86 11.89 14.86 11.94 14.86 12Z"/>
</svg>