<svg id="favorites" viewBox="0 0 26 27" xmlns="http://www.w3.org/2000/svg">
	<path fill-rule="evenodd" clip-rule="evenodd" d="M9.074 3.755h7.852a3.554 3.554 0 012.513.859 3.312 3.312 0 011.144 2.324v15.225c.002.305-.13.596-.363.802a1.148 1.148 0 01-.86.28c-.275 0-.543-.087-.762-.248l-4.857-3.563a1.328 1.328 0 00-1.549 0L7.38 22.997a1.286 1.286 0 01-.74.249 1.147 1.147 0 01-.86-.28 1.066 1.066 0 01-.363-.803V6.938A3.312 3.312 0 016.56 4.614a3.554 3.554 0 012.513-.86zm5.71 14.39l4.094 3.032-.022-14.239c-.106-.944-.972-1.635-1.952-1.56H9.05c-.98-.075-1.845.616-1.952 1.56v14.24l4.095-3.033c1.06-.78 2.53-.78 3.59 0z"></path>
</svg>