<svg id="file" viewBox="0 0 24 24" xmlns="http://www.w3.org/2000/svg">
	<path d="M12 10.25C12.4142 10.25 12.75 10.5858 12.75 11V15.1894L13.9697 13.9697C14.2626 13.6768 14.7374 13.6768 15.0303 13.9697C15.3232 14.2626 15.3232 14.7375 15.0303 15.0304L12.5303 17.5303C12.2374 17.8232 11.7626 17.8232 11.4697 17.5303L8.96967 15.0304C8.67678 14.7375 8.67678 14.2626 8.96967 13.9697C9.26256 13.6768 9.73744 13.6768 10.0303 13.9697L11.25 15.1894V11C11.25 10.5858 11.5858 10.25 12 10.25Z"/>
	<path fill-rule="evenodd" clip-rule="evenodd" d="M14.452 1.38126C13.9042 1.24976 13.3314 1.24986 12.4426 1.25001L10.367 1.25002C9.27486 1.25002 8.40936 1.25001 7.71173 1.30701C6.99834 1.36529 6.39472 1.4869 5.84355 1.76774C4.94978 2.22314 4.22312 2.9498 3.76772 3.84357C3.48688 4.39474 3.36527 4.99837 3.30699 5.71176C3.24999 6.40938 3.24999 7.27488 3.25 8.36702V15.633C3.24999 16.7252 3.24999 17.5907 3.30699 18.2883C3.36527 19.0017 3.48688 19.6053 3.76772 20.1565C4.22312 21.0502 4.94978 21.7769 5.84355 22.2323C6.39472 22.5131 6.99834 22.6347 7.71173 22.693C8.40935 22.75 9.27484 22.75 10.367 22.75H13.633C14.7252 22.75 15.5906 22.75 16.2883 22.693C17.0017 22.6347 17.6053 22.5131 18.1565 22.2323C19.0502 21.7769 19.7769 21.0502 20.2323 20.1565C20.5131 19.6053 20.6347 19.0017 20.693 18.2883C20.75 17.5907 20.75 16.7252 20.75 15.633L20.75 9.55746C20.7502 8.66861 20.7503 8.09578 20.6188 7.54801C20.5024 7.06334 20.3105 6.6 20.05 6.17501C19.7557 5.69469 19.3506 5.28971 18.722 4.66131L17.3387 3.27806C16.7103 2.64944 16.3053 2.24432 15.825 1.94998C15.4 1.68954 14.9367 1.49762 14.452 1.38126ZM13.25 2.75589C13.0162 2.75069 12.7261 2.75002 12.349 2.75002H10.4C9.26752 2.75002 8.46326 2.7506 7.83388 2.80203C7.21325 2.85273 6.829 2.94911 6.52453 3.10425C5.913 3.41584 5.41582 3.91303 5.10423 4.52455C4.94909 4.82902 4.85271 5.21328 4.80201 5.8339C4.75058 6.46329 4.75 7.26754 4.75 8.40002V15.6C4.75 16.7325 4.75058 17.5368 4.80201 18.1661C4.85271 18.7868 4.94909 19.171 5.10423 19.4755C5.41582 20.087 5.913 20.5842 6.52453 20.8958C6.829 21.0509 7.21325 21.1473 7.83388 21.198C8.46326 21.2494 9.26752 21.25 10.4 21.25H13.6C14.7325 21.25 15.5367 21.2494 16.1661 21.198C16.7867 21.1473 17.171 21.0509 17.4755 20.8958C18.087 20.5842 18.5842 20.087 18.8958 19.4755C19.0509 19.171 19.1473 18.7868 19.198 18.1661C19.2494 17.5368 19.25 16.7325 19.25 15.6V9.65099C19.25 9.27393 19.2493 8.98387 19.2441 8.75005H17.1696C16.6354 8.75006 16.1896 8.75007 15.8253 8.72031C15.4454 8.68927 15.0888 8.62216 14.7515 8.45032C14.2341 8.18667 13.8134 7.76597 13.5497 7.24853C13.3779 6.91126 13.3108 6.55461 13.2797 6.17472C13.25 5.81049 13.25 5.36464 13.25 4.83049V2.75589ZM18.9297 7.25005C18.8819 7.15045 18.829 7.05322 18.7711 6.95876C18.5809 6.64838 18.3122 6.37288 17.5952 5.65583L16.3442 4.40487C15.6271 3.68782 15.3516 3.41914 15.0413 3.22894C14.9468 3.17106 14.8496 3.11812 14.75 3.0703V4.80005C14.75 5.37248 14.7506 5.75669 14.7748 6.05257C14.7982 6.3397 14.8401 6.47698 14.8862 6.56754C15.0061 6.80274 15.1973 6.99397 15.4325 7.11381C15.5231 7.15995 15.6604 7.20183 15.9475 7.22529C16.2434 7.24947 16.6276 7.25005 17.2 7.25005H18.9297Z"/>
</svg>