<svg id="filled-heart" viewBox="0 0 24 24" xmlns="http://www.w3.org/2000/svg">
	<path d="M11.9984 3.81005C13.1283 2.6447 14.5981 2.23028 16.0109 2.25072C19.3659 2.29926 22.75 5.03776 22.75 9.00042C22.75 12.8221 20.3048 16.0102 17.8751 18.1841C16.6468 19.283 15.3869 20.1555 14.3642 20.7561C13.8531 21.0563 13.3932 21.2933 13.0188 21.458C12.8323 21.5401 12.6581 21.6081 12.5038 21.657C12.3684 21.7 12.1833 21.75 12 21.75C11.8167 21.75 11.6316 21.7 11.4962 21.657C11.3419 21.6081 11.1677 21.5401 10.9812 21.458C10.6068 21.2933 10.1469 21.0563 9.63583 20.7561C8.61308 20.1555 7.35323 19.283 6.12492 18.1841C3.69523 16.0102 1.25 12.8221 1.25 9.00042C1.25 5.04651 4.62678 2.25064 8 2.25064C9.37536 2.25064 10.86 2.64677 11.9984 3.81005Z"/>
</svg>