<svg id="heart" viewBox="0 0 24 24" xmlns="http://www.w3.org/2000/svg">
	<path fill-rule="evenodd" clip-rule="evenodd" d="M11.9984 3.81005C13.1283 2.6447 14.5981 2.23028 16.0109 2.25072C19.3659 2.29926 22.75 5.03776 22.75 9.00042C22.75 12.8221 20.3048 16.0102 17.8751 18.1841C16.6468 19.283 15.3869 20.1555 14.3642 20.7561C13.8531 21.0563 13.3932 21.2933 13.0188 21.458C12.8323 21.5401 12.6581 21.6081 12.5038 21.657C12.3684 21.7 12.1833 21.75 12 21.75C11.8167 21.75 11.6316 21.7 11.4962 21.657C11.3419 21.6081 11.1677 21.5401 10.9812 21.458C10.6068 21.2933 10.1469 21.0563 9.63583 20.7561C8.61308 20.1555 7.35323 19.283 6.12492 18.1841C3.69523 16.0102 1.25 12.8221 1.25 9.00042C1.25 5.04651 4.62678 2.25064 8 2.25064C9.37536 2.25064 10.86 2.64677 11.9984 3.81005ZM15.9892 3.75056C14.6789 3.7316 13.4502 4.17735 12.624 5.41662C12.4849 5.62526 12.2508 5.75058 12 5.75058C11.7492 5.75058 11.5151 5.62526 11.376 5.41662C10.5543 4.18417 9.30339 3.75064 8 3.75064C5.37322 3.75064 2.75 5.95461 2.75 9.00042C2.75 12.1785 4.80478 14.9902 7.12509 17.0662C8.27178 18.0921 9.44943 18.9071 10.3954 19.4627C10.8687 19.7406 11.276 19.9489 11.5853 20.085C11.7405 20.1533 11.8622 20.1995 11.9496 20.2272C11.9702 20.2338 11.9869 20.2386 12 20.2422C12.0131 20.2386 12.0298 20.2338 12.0504 20.2272C12.1378 20.1995 12.2595 20.1533 12.4148 20.085C12.724 19.9489 13.1313 19.7406 13.6046 19.4627C14.5506 18.9071 15.7282 18.0921 16.8749 17.0662C19.1952 14.9902 21.25 12.1785 21.25 9.00042C21.25 5.96335 18.6341 3.78883 15.9892 3.75056Z"/>
</svg>