<svg id="map" viewBox="0 0 24 24" xmlns="http://www.w3.org/2000/svg">
	<path fill-rule="evenodd" clip-rule="evenodd" d="M1.33931 4.43083C1.834 2.29181 3.69959 1.255 5.47374 1.255C7.24777 1.255 9.11174 2.29196 9.60092 4.43195C10.167 6.87957 8.5993 8.86247 7.44807 9.9623L7.4469 9.96342C6.33313 11.0229 4.59094 11.0038 3.48659 9.96674L3.47948 9.95997C2.34009 8.86164 0.772819 6.87813 1.33931 4.43083ZM5.47374 2.755C4.35483 2.755 3.30975 3.33017 2.90162 4.43104C2.86175 4.53862 2.82784 4.65161 2.80066 4.76918C2.42774 6.37986 3.43752 7.83494 4.51665 8.87633C5.05226 9.37609 5.88737 9.37613 6.41256 8.87708C7.50091 7.83711 8.51243 6.38071 8.13932 4.76918L8.1388 4.76695C8.11217 4.65031 8.079 4.53853 8.03984 4.43174C7.63602 3.33061 6.5933 2.755 5.47374 2.755Z"/>
	<path d="M5.48621 4.5C4.93392 4.5 4.48621 4.94772 4.48621 5.5C4.48621 6.05228 4.93392 6.5 5.48621 6.5H5.49776C6.05005 6.5 6.49776 6.05228 6.49776 5.5C6.49776 4.94772 6.05005 4.5 5.49776 4.5H5.48621Z"/>
	<path d="M11.25 5C11.25 4.58579 11.5858 4.25 12 4.25H14.68C17.2238 4.25 18.4034 7.39845 16.4947 9.07368L8.50383 16.0645L8.50243 16.0657C7.63644 16.8195 8.1722 18.25 9.32 18.25H12C12.4142 18.25 12.75 18.5858 12.75 19C12.75 19.4142 12.4142 19.75 12 19.75H9.32C6.78811 19.75 5.60459 16.6006 7.51756 14.9343L15.5056 7.94599C16.3764 7.18114 15.836 5.75 14.68 5.75H12C11.5858 5.75 11.25 5.41421 11.25 5Z"/>
	<path d="M17.4862 17.5C17.4862 16.9477 17.9397 16.5 18.492 16.5C19.0443 16.5 19.4978 16.9477 19.4978 17.5C19.4978 18.0523 19.05 18.5 18.4978 18.5H18.4862C17.9339 18.5 17.4862 18.0523 17.4862 17.5Z"/>
	<path fill-rule="evenodd" clip-rule="evenodd" d="M14.3393 16.4308C14.8346 14.2892 16.7102 13.255 18.49 13.255C20.2698 13.255 22.1454 14.2892 22.6407 16.4308C23.2076 18.8797 21.639 20.863 20.4757 21.9646C19.3618 23.0228 17.6105 23.0034 16.5066 21.9667L16.5043 21.9646C15.341 20.863 13.7725 18.8796 14.3393 16.4308ZM18.49 14.755C17.3605 14.755 16.3106 15.3321 15.9019 16.4308C15.8619 16.5385 15.8279 16.6516 15.8007 16.7692C15.4278 18.3797 16.4383 19.8359 17.5344 20.8742C18.0701 21.3762 18.9172 21.3768 19.4431 20.8766L19.4443 20.8754C20.541 19.837 21.5523 18.3801 21.1793 16.769C21.1521 16.6513 21.1181 16.5385 21.0781 16.4308C20.6694 15.3321 19.6194 14.755 18.49 14.755Z"/>
</svg>