<svg id="mobmenu_akcii" viewBox="0 0 16 16" xmlns="http://www.w3.org/2000/svg">
	<path d="M14.274 7.72l-6-6a1.325 1.325 0 00-.94-.387H2.667c-.733 0-1.333.6-1.333 1.334v4.667c0 .366.146.7.393.946l6 6c.24.24.573.387.94.387s.7-.147.94-.393l4.667-4.667c.246-.24.393-.573.393-.94s-.153-.707-.393-.947zm-5.607 5.62l-6-6.006V2.667h4.667V2.66l6 6-4.667 4.68z"></path>
	<path d="M4.333 5.333a1 1 0 100-2 1 1 0 000 2zM5.933 8.367c0 .38.153.713.4.966l2.333 2.334L11 9.333A1.369 1.369 0 009.067 7.4l-.4.4-.4-.393A1.35 1.35 0 007.3 7c-.754 0-1.367.613-1.367 1.367z"></path>
</svg>