<svg id="mobmenu_uslugi" viewBox="0 0 16 16" xmlns="http://www.w3.org/2000/svg">
	<path d="M15.074 12.66L9.02 6.607c.62-1.56.3-3.4-.96-4.667a4.333 4.333 0 00-5.62-.433L5 4.073l-.946.94L1.5 2.46a4.324 4.324 0 00.434 5.613 4.335 4.335 0 004.593.987l6.074 6.073c.26.26.68.26.94 0l1.533-1.533a.652.652 0 000-.94zm-2 1.067L6.767 7.42c-.407.3-.86.48-1.333.547a2.981 2.981 0 01-2.554-.834A2.978 2.978 0 012 4.84L4.06 6.9l2.827-2.827-2.06-2.06a3.006 3.006 0 012.293.874c.72.72.994 1.713.827 2.64a2.9 2.9 0 01-.587 1.306l6.3 6.3-.586.594z"></path>
</svg>