<svg id="mobmenu_dostavka" viewBox="0 0 16 16" xmlns="http://www.w3.org/2000/svg">
	<path d="M13.334 5.333h-2V2.667H2c-.733 0-1.333.6-1.333 1.333v7.333H2c0 1.107.894 2 2 2 1.107 0 2-.893 2-2h4c0 1.107.894 2 2 2 1.107 0 2-.893 2-2h1.334V8l-2-2.667zm-.334 1L14.307 8h-2.973V6.333H13zM4 12a.669.669 0 01-.666-.667c0-.366.3-.666.666-.666.367 0 .667.3.667.666 0 .367-.3.667-.667.667zm1.48-2A1.98 1.98 0 004 9.333 1.98 1.98 0 002.52 10H2V4h8v6H5.48zM12 12a.669.669 0 01-.666-.667c0-.366.3-.666.666-.666.367 0 .667.3.667.666 0 .367-.3.667-.667.667z"></path>
</svg>