<svg id="print" viewBox="0 0 24 24" xmlns="http://www.w3.org/2000/svg">
	<path d="M7 10.25C6.58579 10.25 6.25 10.5858 6.25 11C6.25 11.4142 6.58579 11.75 7 11.75H10C10.4142 11.75 10.75 11.4142 10.75 11C10.75 10.5858 10.4142 10.25 10 10.25H7Z"/>
	<path fill-rule="evenodd" clip-rule="evenodd" d="M7.3591 2.23704C8.03327 1.51793 9.03399 1.25 10.25 1.25H13.75C14.966 1.25 15.9667 1.51793 16.6409 2.23704C17.3054 2.94586 17.5 3.93363 17.5 5V6.25H18C19.1156 6.25 20.0901 6.52941 20.7803 7.21967C21.4706 7.90993 21.75 8.88439 21.75 10V15C21.75 16.1156 21.4706 17.0901 20.7803 17.7803C20.0901 18.4706 19.1156 18.75 18 18.75H16.75V19C16.75 20.1156 16.4706 21.0901 15.7803 21.7803C15.0901 22.4706 14.1156 22.75 13 22.75H11C9.88439 22.75 8.90993 22.4706 8.21967 21.7803C7.52941 21.0901 7.25 20.1156 7.25 19V18.75H6C4.88439 18.75 3.90993 18.4706 3.21967 17.7803C2.52941 17.0901 2.25 16.1156 2.25 15V10C2.25 8.88439 2.52941 7.90993 3.21967 7.21967C3.90993 6.52941 4.88439 6.25 6 6.25H6.5V5C6.5 3.93363 6.69458 2.94586 7.3591 2.23704ZM8 6.25H16V5C16 4.06637 15.8196 3.55414 15.5466 3.26296C15.2833 2.98207 14.784 2.75 13.75 2.75H10.25C9.21601 2.75 8.71673 2.98207 8.4534 3.26296C8.18042 3.55414 8 4.06637 8 5V6.25ZM7.25 17.25V15.75H7C6.58579 15.75 6.25 15.4142 6.25 15C6.25 14.5858 6.58579 14.25 7 14.25H17C17.4142 14.25 17.75 14.5858 17.75 15C17.75 15.4142 17.4142 15.75 17 15.75H16.75V17.25H18C18.8844 17.25 19.4099 17.0294 19.7197 16.7197C20.0294 16.4099 20.25 15.8844 20.25 15V10C20.25 9.11561 20.0294 8.59007 19.7197 8.28033C19.4099 7.97059 18.8844 7.75 18 7.75H6C5.11561 7.75 4.59007 7.97059 4.28033 8.28033C3.97059 8.59007 3.75 9.11561 3.75 10V15C3.75 15.8844 3.97059 16.4099 4.28033 16.7197C4.59007 17.0294 5.11561 17.25 6 17.25H7.25ZM8.75 15.75H15.25V19C15.25 19.8844 15.0294 20.4099 14.7197 20.7197C14.4099 21.0294 13.8844 21.25 13 21.25H11C10.1156 21.25 9.59007 21.0294 9.28033 20.7197C8.97059 20.4099 8.75 19.8844 8.75 19V15.75Z"/>
</svg>