<svg id="profile-2" viewBox="0 0 24 24" xmlns="http://www.w3.org/2000/svg">
	<path fill-rule="evenodd" clip-rule="evenodd" d="M7.67 10.58C7.67 8.18581 9.60578 6.25 12 6.25C14.3942 6.25 16.33 8.18581 16.33 10.58C16.33 12.9715 14.3969 14.92 12 14.92C9.60307 14.92 7.67 12.9715 7.67 10.58ZM12 7.75C10.4342 7.75 9.17 9.01423 9.17 10.58C9.17 12.1485 10.4369 13.42 12 13.42C13.5631 13.42 14.83 12.1485 14.83 10.58C14.83 9.01423 13.5658 7.75 12 7.75Z"/>
	<path fill-rule="evenodd" clip-rule="evenodd" d="M3.09467 3.09467C4.42914 1.7602 6.42603 1.25 9 1.25H15C17.574 1.25 19.5709 1.7602 20.9053 3.09467C22.2398 4.42914 22.75 6.42603 22.75 9V15C22.75 16.9506 22.4585 18.5641 21.7401 19.8128C21.0045 21.0912 19.8665 21.9098 18.3484 22.3405C17.3785 22.6264 16.2632 22.75 15 22.75H9C7.73681 22.75 6.62146 22.6264 5.65163 22.3405C4.13349 21.9098 2.99547 21.0912 2.25993 19.8128C1.54148 18.5641 1.25 16.9506 1.25 15V9C1.25 6.42603 1.7602 4.42914 3.09467 3.09467ZM12 17.72C14.6909 17.72 16.7593 19.2324 17.278 21.0585C16.6246 21.1863 15.8704 21.25 15 21.25H9C8.1296 21.25 7.37539 21.1863 6.72205 21.0585C6.73596 21.0095 6.751 20.9607 6.76713 20.9122C7.35211 19.1524 9.38129 17.72 12 17.72ZM20.4399 19.0647C20.0468 19.748 19.4916 20.2603 18.7149 20.6155C17.9705 18.0088 15.1417 16.22 12 16.22C8.85826 16.22 6.02949 18.0088 5.28506 20.6155C4.50844 20.2603 3.95322 19.748 3.56007 19.0647C3.02852 18.1409 2.75 16.8294 2.75 15V9C2.75 6.57397 3.2398 5.07086 4.15533 4.15533C5.07086 3.2398 6.57397 2.75 9 2.75H15C17.426 2.75 18.9291 3.2398 19.8447 4.15533C20.7602 5.07086 21.25 6.57397 21.25 9V15C21.25 16.8294 20.9715 18.1409 20.4399 19.0647Z"/>
</svg>