<svg id="profile" viewBox="0 0 24 24" xmlns="http://www.w3.org/2000/svg">
	<path d="M10.5.5C4.98.5.5 4.98.5 10.5s4.48 10 10 10 10-4.48 10-10-4.48-10-10-10zM5.57 16.78C6 15.88 8.62 15 10.5 15s4.51.88 4.93 1.78a7.893 7.893 0 01-4.93 1.72c-1.86 0-3.57-.64-4.93-1.72zm11.29-1.45C15.43 13.59 11.96 13 10.5 13s-4.93.59-6.36 2.33A7.95 7.95 0 012.5 10.5c0-4.41 3.59-8 8-8s8 3.59 8 8c0 1.82-.62 3.49-1.64 4.83zM10.5 4.5C8.56 4.5 7 6.06 7 8s1.56 3.5 3.5 3.5S14 9.94 14 8s-1.56-3.5-3.5-3.5zm0 5C9.67 9.5 9 8.83 9 8s.67-1.5 1.5-1.5S12 7.17 12 8s-.67 1.5-1.5 1.5z"></path>
</svg>