<svg id="profile" viewBox="0 0 24 24" xmlns="http://www.w3.org/2000/svg">
	<path fill-rule="evenodd" clip-rule="evenodd" d="M12 1.25C9.12468 1.25 6.81 3.57689 6.81 6.44C6.81 9.24337 9.01959 11.526 11.8048 11.6196C11.8359 11.6206 11.867 11.6197 11.8979 11.6169C11.9651 11.6108 12.0371 11.6115 12.0854 11.6163C12.1185 11.6196 12.1519 11.6207 12.1852 11.6196C14.971 11.5259 17.1783 9.24352 17.19 6.44313L17.19 6.44C17.19 3.57579 14.8642 1.25 12 1.25ZM8.31 6.44C8.31 4.40311 9.95531 2.75 12 2.75C14.0353 2.75 15.6892 4.40339 15.69 6.43847C15.6809 8.42308 14.1309 10.031 12.177 10.1188C12.0588 10.1102 11.9335 10.1106 11.8149 10.1189C9.85907 10.032 8.31 8.42302 8.31 6.44Z"/>
	<path fill-rule="evenodd" clip-rule="evenodd" d="M17.5865 13.9363C16.067 12.9214 14.1007 12.4375 12.1725 12.4375C10.244 12.4375 8.27395 12.9215 6.74551 13.9349L6.74276 13.9368C5.37741 14.8507 4.59497 16.1274 4.59497 17.4987C4.59497 18.8703 5.37768 20.1448 6.74379 21.0539C8.26788 22.0734 10.2363 22.56 12.165 22.56C14.0941 22.56 16.0628 22.0732 17.587 21.0533C18.9524 20.1393 19.735 18.8626 19.735 17.4912C19.735 16.1198 18.9524 14.8454 17.5865 13.9363ZM6.09497 17.4987C6.09497 16.7429 6.52216 15.89 7.5758 15.1842C8.80724 14.3682 10.4715 13.9375 12.1725 13.9375C13.8743 13.9375 15.533 14.3686 16.7534 15.1837L16.7545 15.1844C17.808 15.8853 18.235 16.7355 18.235 17.4912C18.235 18.2474 17.8074 19.1007 16.7528 19.8068C15.527 20.6269 13.8658 21.06 12.165 21.06C10.4641 21.06 8.80283 20.6268 7.57704 19.8067L7.5754 19.8056C6.52198 19.1047 6.09497 18.2544 6.09497 17.4987Z"/>
</svg>