<svg id="receipt" viewBox="0 0 24 24" xmlns="http://www.w3.org/2000/svg">
	<path d="M8.25 13.01C8.25 12.5958 8.58579 12.26 9 12.26H12C12.4142 12.26 12.75 12.5958 12.75 13.01C12.75 13.4242 12.4142 13.76 12 13.76H9C8.58579 13.76 8.25 13.4242 8.25 13.01Z"/>
	<path d="M9 8.26001C8.58579 8.26001 8.25 8.5958 8.25 9.01001C8.25 9.42422 8.58579 9.76001 9 9.76001H12C12.4142 9.76001 12.75 9.42422 12.75 9.01001C12.75 8.5958 12.4142 8.26001 12 8.26001H9Z"/>
	<path d="M4.99561 13C4.99561 12.4477 5.44332 12 5.99561 12H6.00459C6.55687 12 7.00459 12.4477 7.00459 13C7.00459 13.5523 6.55687 14 6.00459 14H5.99561C5.44332 14 4.99561 13.5523 4.99561 13Z"/>
	<path d="M5.99561 8C5.44332 8 4.99561 8.44772 4.99561 9C4.99561 9.55229 5.44332 10 5.99561 10H6.00459C6.55687 10 7.00459 9.55229 7.00459 9C7.00459 8.44772 6.55687 8 6.00459 8H5.99561Z"/>
	<path fill-rule="evenodd" clip-rule="evenodd" d="M6 1.25C4.34646 1.25 3.11215 1.74912 2.30736 2.68106C1.52033 3.59244 1.25 4.79713 1.25 6V21C1.25 22.4434 2.89266 23.2743 4.05084 22.3994L4.05289 22.3978L5.75944 21.1204C5.85708 21.0472 5.99988 21.0511 6.09911 21.1498L7.75808 22.8187L7.75967 22.8203C8.44256 23.5032 9.55744 23.5032 10.2403 22.8203L11.9203 21.1403C12.0086 21.0521 12.1465 21.0481 12.2327 21.1145L12.2406 21.1204L13.9506 22.4004L13.9529 22.4022C15.1035 23.2564 16.75 22.4418 16.75 21V11.75H19.42C20.3706 11.75 21.2197 11.446 21.8328 10.8328C22.446 10.2197 22.75 9.37056 22.75 8.42V6C22.75 4.69125 22.214 3.50518 21.364 2.64334L21.3603 2.63967C20.5033 1.78264 19.3161 1.26186 18.0269 1.25003L18.02 1.25L18.0069 1.25003L18 1.25H6ZM16.75 4.01V10.25H19.42C20.0494 10.25 20.4903 10.054 20.7722 9.77217C21.054 9.4903 21.25 9.04943 21.25 8.42V6C21.25 5.10967 20.8867 4.29651 20.2979 3.69852C19.7158 3.11742 18.9052 2.75912 18.0168 2.75C17.3176 2.75174 16.75 3.32011 16.75 4.01ZM15.25 4C15.25 3.55044 15.3589 3.12542 15.5517 2.75H6C4.65354 2.75 3.88785 3.14588 3.44264 3.66144C2.97967 4.19756 2.75 4.99287 2.75 6V21C2.75 21.2157 2.98539 21.3247 3.14711 21.2022L3.15056 21.1996L4.86 19.92C5.56217 19.3934 6.53959 19.4689 7.16033 20.0897L7.16192 20.0913L8.82033 21.7597C8.91751 21.8563 9.08274 21.8566 9.17967 21.7597L10.8597 20.0797C11.4701 19.4693 12.4493 19.3922 13.1428 19.9221L14.8471 21.1978L14.8479 21.1984C15.0173 21.3232 15.25 21.1979 15.25 21V4Z"/>
</svg>