<svg id="refresh" viewBox="0 0 24 24" xmlns="http://www.w3.org/2000/svg">
	<path d="M12.7476 1.43431C13.06 1.16235 13.5337 1.19516 13.8057 1.50758L16.6873 4.81796C16.7043 4.83686 16.7205 4.8568 16.7358 4.87776L16.7381 4.88096C16.8562 5.04454 16.8989 5.23988 16.8726 5.42525C16.8571 5.53448 16.8177 5.64063 16.7549 5.73512C16.7161 5.79346 16.6686 5.84714 16.6126 5.89409C16.5964 5.90772 16.5798 5.92056 16.5628 5.93259L13.2022 8.38573C12.8676 8.62995 12.3985 8.55671 12.1542 8.22215C11.91 7.88759 11.9833 7.4184 12.3178 7.17418L14.3333 5.70293C13.6173 5.51616 12.8422 5.40004 12 5.40004C7.62423 5.40004 4.08002 8.94425 4.08002 13.32C4.08002 17.7064 7.62479 21.25 12 21.25C16.3758 21.25 19.92 17.7058 19.92 13.33C19.92 11.7037 19.427 10.1876 18.586 8.92606C18.3562 8.58141 18.4493 8.11576 18.794 7.886C19.1386 7.65623 19.6043 7.74936 19.8341 8.09401C20.833 9.59251 21.42 11.3964 21.42 13.33C21.42 18.5342 17.2042 22.75 12 22.75C6.79524 22.75 2.58002 18.5337 2.58002 13.32C2.58002 8.11582 6.7958 3.90004 12 3.90004C12.738 3.90004 13.4302 3.97662 14.0787 4.10583L12.6743 2.49244C12.4023 2.18001 12.4351 1.70627 12.7476 1.43431Z"/>
</svg>