<svg id="shopping-cart" viewBox="0 0 24 24" xmlns="http://www.w3.org/2000/svg">
	<path fill-rule="evenodd" clip-rule="evenodd" d="M2 1.25C1.58579 1.25 1.25 1.58579 1.25 2C1.25 2.41421 1.58579 2.75 2 2.75H3.74001C4.37993 2.75 4.88593 3.30354 4.83264 3.93714L4.00275 13.8958C3.82552 15.9659 5.46335 17.74 7.53999 17.74H18.19C20.0257 17.74 21.608 16.2545 21.7478 14.4375L21.7481 14.4339L22.288 6.93408C22.4396 4.83723 20.833 3.12 18.73 3.12H6.23293C5.91944 2.0501 4.92958 1.25 3.74001 1.25H2ZM5.49741 14.0223L6.28094 4.62H18.73C19.967 4.62 20.8804 5.60278 20.7919 6.82593L20.7614 7.25H9C8.58579 7.25 8.25 7.58579 8.25 8C8.25 8.41421 8.58579 8.75 9 8.75H20.6534L20.2522 14.3225L20.2521 14.3242C20.171 15.3664 19.2338 16.24 18.19 16.24H7.53999C6.33696 16.24 5.39508 15.2137 5.49725 14.0242L5.49741 14.0223Z"/>
	<path fill-rule="evenodd" clip-rule="evenodd" d="M16.25 18.75C15.1454 18.75 14.25 19.6454 14.25 20.75C14.25 21.8546 15.1454 22.75 16.25 22.75C17.3546 22.75 18.25 21.8546 18.25 20.75C18.25 19.6454 17.3546 18.75 16.25 18.75ZM15.75 20.75C15.75 20.4739 15.9739 20.25 16.25 20.25C16.5261 20.25 16.75 20.4739 16.75 20.75C16.75 21.0261 16.5261 21.25 16.25 21.25C15.9739 21.25 15.75 21.0261 15.75 20.75Z"/>
	<path fill-rule="evenodd" clip-rule="evenodd" d="M6.25 20.75C6.25 19.6454 7.14543 18.75 8.25 18.75C9.35457 18.75 10.25 19.6454 10.25 20.75C10.25 21.8546 9.35457 22.75 8.25 22.75C7.14543 22.75 6.25 21.8546 6.25 20.75ZM8.25 20.25C7.97386 20.25 7.75 20.4739 7.75 20.75C7.75 21.0261 7.97386 21.25 8.25 21.25C8.52614 21.25 8.75 21.0261 8.75 20.75C8.75 20.4739 8.52614 20.25 8.25 20.25Z"/>
</svg>