<svg id="shop" viewBox="0 0 24 24" xmlns="http://www.w3.org/2000/svg">
	<path fill-rule="evenodd" clip-rule="evenodd" d="M3.2436 2.27407C4.0693 1.51137 5.20317 1.25 6.59 1.25H9.64L9.65494 1.25015L9.66998 1.25H17.35C18.7368 1.25 19.8707 1.51137 20.6964 2.27407C21.5122 3.02763 21.8853 4.14208 22.0729 5.49714C22.0732 5.49921 22.0735 5.50128 22.0737 5.50335C22.0746 5.51023 22.0754 5.51712 22.0761 5.52403L22.3563 8.27574C22.4574 9.29171 22.2027 10.2345 21.6941 10.9901C21.7174 11.0625 21.73 11.1398 21.73 11.22V15.71C21.73 18.0293 21.2696 19.8485 20.0491 21.069C18.8285 22.2896 17.0094 22.75 14.69 22.75H14.5068C14.5046 22.75 14.5023 22.75 14.5 22.75H9.49999C9.49771 22.75 9.49543 22.75 9.49316 22.75H9.3C6.98062 22.75 5.16147 22.2896 3.94092 21.069C2.72038 19.8485 2.26 18.0293 2.26 15.71V11.22C2.26 11.1548 2.26832 11.0915 2.28395 11.0313C1.75678 10.269 1.49084 9.31057 1.59363 8.27627L1.86359 5.52672C1.86456 5.51683 1.86572 5.50697 1.86709 5.49714C2.05471 4.14208 2.42779 3.02763 3.2436 2.27407ZM13.75 21.25H10.25V19.5C10.25 18.7795 10.4287 18.3795 10.6541 18.1541C10.8795 17.9287 11.2795 17.75 12 17.75C12.7205 17.75 13.1205 17.9287 13.3459 18.1541C13.5713 18.3795 13.75 18.7795 13.75 19.5V21.25ZM15.25 21.2396V19.5C15.25 18.5505 15.0137 17.7005 14.4066 17.0934C13.7995 16.4863 12.9495 16.25 12 16.25C11.0505 16.25 10.2005 16.4863 9.59341 17.0934C8.98633 17.7005 8.74999 18.5505 8.74999 19.5V21.2399C6.90162 21.1704 5.73344 20.7403 5.00158 20.0084C4.19963 19.2064 3.76 17.8806 3.76 15.71V12.3134C4.31643 12.5929 4.95338 12.75 5.64 12.75C6.91875 12.75 8.11135 12.1052 8.86957 11.1199C9.53526 12.1077 10.6682 12.75 12 12.75C13.3156 12.75 14.4372 12.1232 15.106 11.1557C15.8673 12.1203 17.0458 12.75 18.31 12.75C19.0131 12.75 19.6642 12.5853 20.23 12.293V15.71C20.23 17.8806 19.7904 19.2064 18.9884 20.0084C18.2579 20.7389 17.0926 21.1688 15.25 21.2396ZM3.35493 5.68835L3.08641 8.42328C2.93018 9.9934 4.06508 11.25 5.64 11.25C6.90661 11.25 8.07104 10.2005 8.1935 8.93761L8.19369 8.93571L8.81126 2.75H6.59C5.35683 2.75 4.68069 2.98863 4.26139 3.37593C3.83388 3.77082 3.52768 4.45258 3.35493 5.68835ZM13.6211 2.75L14.2537 9.08452L14.2539 9.08687C14.2563 9.10951 14.2588 9.13211 14.2615 9.15466C14.189 10.3509 13.2488 11.25 12 11.25C10.6152 11.25 9.60992 10.1444 9.74632 8.75409L10.3485 2.75H13.6211ZM15.7655 9.07752C15.9661 10.2793 17.0927 11.25 18.31 11.25C19.8846 11.25 21.0195 9.99482 20.8638 8.4251L20.5852 5.68966C20.4125 4.45307 20.1063 3.77096 19.6786 3.37593C19.2593 2.98863 18.5832 2.75 17.35 2.75H15.1677L15.7463 8.60626C15.762 8.76535 15.7683 8.92282 15.7655 9.07752Z"/>
</svg>