<svg id="sms" viewBox="0 0 24 24" xmlns="http://www.w3.org/2000/svg">
	<path d="M17.4681 9.58602C17.7917 9.32751 17.8445 8.85558 17.586 8.53194C17.3275 8.20829 16.8556 8.15548 16.5319 8.41398L13.4029 10.9132C12.6465 11.5151 11.3446 11.5155 10.588 10.9139L7.46898 8.41471C7.14574 8.1557 6.67373 8.20778 6.41471 8.53102C6.1557 8.85426 6.20778 9.32627 6.53102 9.58529L9.65101 12.0853L9.65286 12.0868C10.9563 13.1244 13.0337 13.1244 14.3371 12.0868L17.4681 9.58602Z"/>
	<path fill-rule="evenodd" clip-rule="evenodd" d="M7 2.75C5.38503 2.75 3.92465 3.15363 2.86466 4.1379C1.79462 5.13152 1.25 6.60705 1.25 8.5V15.5C1.25 17.393 1.79462 18.8685 2.86466 19.8621C3.92465 20.8464 5.38503 21.25 7 21.25H17C18.615 21.25 20.0754 20.8464 21.1353 19.8621C22.2054 18.8685 22.75 17.393 22.75 15.5V8.5C22.75 6.60705 22.2054 5.13152 21.1353 4.1379C20.0754 3.15363 18.615 2.75 17 2.75H7ZM2.75 8.5C2.75 6.89295 3.20538 5.86848 3.88534 5.2371C4.57535 4.59637 5.61497 4.25 7 4.25H17C18.385 4.25 19.4246 4.59637 20.1147 5.2371C20.7946 5.86848 21.25 6.89295 21.25 8.5V15.5C21.25 17.107 20.7946 18.1315 20.1147 18.7629C19.4246 19.4036 18.385 19.75 17 19.75H7C5.61497 19.75 4.57535 19.4036 3.88534 18.7629C3.20538 18.1315 2.75 17.107 2.75 15.5V8.5Z"/>
</svg>