<svg id="soc-yt" viewBox="0 0 48 48" xmlns="http://www.w3.org/2000/svg">
	<path fill-rule="evenodd" clip-rule="evenodd" d="M34.0016 15.7493C35.1031 16.0515 35.9706 16.9422 36.265 18.0732C36.8 20.123 36.8 24.4 36.8 24.4C36.8 24.4 36.8 28.6768 36.265 30.7267C35.9706 31.8577 35.1031 32.7484 34.0016 33.0508C32.0054 33.6 24 33.6 24 33.6C24 33.6 15.9946 33.6 13.9983 33.0508C12.8967 32.7484 12.0292 31.8577 11.7348 30.7267C11.2 28.6768 11.2 24.4 11.2 24.4C11.2 24.4 11.2 20.123 11.7348 18.0732C12.0292 16.9422 12.8967 16.0515 13.9983 15.7493C15.9946 15.2 24 15.2 24 15.2C24 15.2 32.0054 15.2 34.0016 15.7493ZM21.6 20.8V28.8L28 24.8002L21.6 20.8Z"/>
</svg>