<svg id="soc-ok" viewBox="0 0 48 48" xmlns="http://www.w3.org/2000/svg">
	<path d="M26.596 29.4403C27.902 29.1531 29.1615 28.6543 30.3216 27.951C31.1996 27.4167 31.4641 26.2964 30.9109 25.449C30.3581 24.5996 29.1983 24.344 28.3189 24.8783C25.6908 26.4736 22.3072 26.4732 19.6806 24.8783C18.8011 24.344 17.641 24.5996 17.0894 25.449C16.5362 26.2972 16.7999 27.4167 17.6779 27.951C18.838 28.6536 20.0975 29.1531 21.4035 29.4403L17.8164 32.9028C17.0832 33.6114 17.0832 34.7601 17.8172 35.4686C18.1846 35.8225 18.6652 35.9996 19.1458 35.9996C19.6272 35.9996 20.1086 35.8225 20.476 35.4686L23.9993 32.0661L27.5257 35.4686C28.259 36.1771 29.4486 36.1771 30.1826 35.4686C30.9174 34.7601 30.9174 33.6106 30.1826 32.9028L26.596 29.4403Z"/>
	<path fill-rule="evenodd" clip-rule="evenodd" d="M30.3996 18.1936C30.3996 21.6079 27.5228 24.3853 23.9837 24.3853C20.4454 24.3853 17.5678 21.6079 17.5678 18.1936C17.5678 14.7781 20.4454 12 23.9837 12C27.5228 12 30.3996 14.7781 30.3996 18.1936ZM26.6411 18.1936C26.6411 16.7795 25.4496 15.6296 23.9846 15.6296C22.5209 15.6296 21.3281 16.7795 21.3281 18.1936C21.3281 19.6065 22.5209 20.7571 23.9846 20.7571C25.4496 20.7571 26.6411 19.6065 26.6411 18.1936Z"/>
</svg>