<svg id="star-filled" viewBox="0 0 24 24" xmlns="http://www.w3.org/2000/svg">
    <path d="M9.13785 5.00023C10.0591 3.1578 10.5197 2.23659 11.143 1.94097C11.6854 1.68372 12.3147 1.68372 12.8571 1.94097C13.4804 2.23659 13.941 3.1578 14.8622 5.00023L15.2215 5.7188C15.5059 6.28767 15.6481 6.57211 15.8562 6.78988C16.0404 6.98266 16.2612 7.13666 16.5058 7.24284C16.7821 7.36279 17.0981 7.39791 17.7303 7.46814L18.0564 7.50438C20.2646 7.74974 21.3687 7.87242 21.8677 8.38151C22.3013 8.82391 22.5055 9.44228 22.4205 10.0559C22.3227 10.762 21.5086 11.5179 19.8805 13.0298L19.5361 13.3495C18.9804 13.8656 18.7025 14.1236 18.5419 14.4363C18.4 14.7127 18.3244 15.0183 18.3211 15.329C18.3174 15.6805 18.4446 16.043 18.699 16.768C19.5294 19.1346 19.9446 20.3179 19.673 21.0097C19.4374 21.6098 18.927 22.0595 18.3021 22.2177C17.5816 22.4 16.4768 21.8476 14.267 20.7427L13.4311 20.3248C12.9064 20.0624 12.644 19.9312 12.3688 19.8796C12.1251 19.8339 11.875 19.8339 11.6312 19.8796C11.356 19.9312 11.0937 20.0624 10.5689 20.3248L9.733 20.7427C7.52327 21.8476 6.4184 22.4 5.69792 22.2177C5.07299 22.0595 4.56262 21.6098 4.32704 21.0097C4.05544 20.3179 4.47064 19.1346 5.30103 16.768C5.55542 16.043 5.68262 15.6805 5.67893 15.329C5.67566 15.0183 5.60006 14.7127 5.45812 14.4363C5.29753 14.1236 5.01965 13.8656 4.46389 13.3495L4.11955 13.0297C2.49142 11.5179 1.67736 10.762 1.57954 10.0559C1.49454 9.44228 1.69868 8.82391 2.1323 8.38151C2.63128 7.87242 3.73539 7.74974 5.94361 7.50438L6.26978 7.46814C6.9019 7.39791 7.21797 7.36279 7.49425 7.24284C7.7388 7.13666 7.95967 6.98266 8.14384 6.78988C8.35191 6.57211 8.49413 6.28767 8.77856 5.7188L9.13785 5.00023Z"/>
</svg>