<svg id="timer" viewBox="0 0 16 16" xmlns="http://www.w3.org/2000/svg">
	<path d="M10.3001 1.9688C9.75774 1.9337 9.02147 1.9334 8.00001 1.9334H7.28958C6.56291 1.9334 6.03924 1.93356 5.65051 1.95162C5.24548 1.97044 5.06787 2.00718 4.99055 2.03906C4.22768 2.35353 3.90087 3.2562 4.2856 3.98616C4.3246 4.06015 4.43752 4.20208 4.73662 4.47583C5.02368 4.73856 5.42587 5.07393 5.98412 5.53913L6.38412 5.87247C6.63868 6.0846 6.67308 6.46294 6.46094 6.71751C6.2488 6.97207 5.87046 7.00647 5.6159 6.79433L5.20294 6.4502C4.66038 5.99807 4.23658 5.64491 3.92643 5.36104C3.62586 5.08594 3.36969 4.82205 3.22402 4.54567C2.50952 3.19004 3.11646 1.51364 4.53321 0.929625C4.82205 0.810557 5.18778 0.771827 5.59481 0.752913C6.0148 0.733396 6.56646 0.733397 7.27273 0.733398H8.02371C9.01648 0.733396 9.79174 0.733394 10.3776 0.771303C10.9455 0.808054 11.4535 0.88384 11.8312 1.11458C12.8695 1.74882 13.3292 3.01834 12.9375 4.1703C12.7951 4.58939 12.4533 4.9728 12.0406 5.36461C11.6148 5.76878 11.0192 6.26509 10.2565 6.90065L6.52988 10.0062C5.74517 10.6601 5.17975 11.1317 4.78559 11.5058C4.37504 11.8956 4.23719 12.1026 4.19862 12.2161C3.98773 12.8364 4.23522 13.52 4.79433 13.8615C4.89661 13.924 5.13507 13.9948 5.69994 14.0313C6.24228 14.0664 6.97854 14.0667 8.00001 14.0667H8.71044C9.43711 14.0667 9.96078 14.0666 10.3495 14.0485C10.7545 14.0297 10.9321 13.9929 11.0095 13.9611C11.7723 13.6466 12.0991 12.7439 11.7144 12.014C11.6754 11.94 11.5625 11.798 11.2634 11.5243C10.9763 11.2616 10.5741 10.9262 10.0159 10.461L9.6159 10.1277C9.36133 9.91553 9.32694 9.53719 9.53907 9.28262C9.75121 9.02805 10.1296 8.99366 10.3841 9.2058L10.797 9.54989C11.3396 10.002 11.7634 10.3552 12.0736 10.6391C12.3742 10.9142 12.6303 11.1781 12.776 11.4545C13.4905 12.8101 12.8835 14.4865 11.4668 15.0705C11.178 15.1896 10.8122 15.2283 10.4052 15.2472C9.98522 15.2667 9.43357 15.2667 8.72731 15.2667H7.97632C6.98355 15.2667 6.20828 15.2667 5.62245 15.2288C5.05452 15.1921 4.54656 15.1163 4.1688 14.8855C3.13047 14.2513 2.67084 12.9818 3.06248 11.8298C3.20496 11.4107 3.54667 11.0273 3.95944 10.6355C4.38521 10.2314 4.98077 9.73506 5.74343 9.09952L9.47013 5.99394C10.2548 5.34002 10.8203 4.86843 11.2144 4.49428C11.625 4.10457 11.7628 3.89751 11.8014 3.78404C12.0123 3.16375 11.7648 2.48016 11.2057 2.13865C11.1034 2.07617 10.8649 2.00535 10.3001 1.9688Z"/>
</svg>