<svg id="warning" viewBox="0 0 24 24" xmlns="http://www.w3.org/2000/svg">
	<path d="M12 7C12.4142 7 12.75 7.33579 12.75 7.75V13C12.75 13.4142 12.4142 13.75 12 13.75C11.5858 13.75 11.25 13.4142 11.25 13V7.75C11.25 7.33579 11.5858 7 12 7Z"/>
	<path d="M13 16.2C13 15.6477 12.5523 15.2 12 15.2C11.4477 15.2 11 15.6477 11 16.2V16.2999C11 16.8522 11.4477 17.2999 12 17.2999C12.5523 17.2999 13 16.8522 13 16.2999V16.2Z"/>
	<path fill-rule="evenodd" clip-rule="evenodd" d="M10.045 1.77047C11.2482 1.07583 12.7327 1.07774 13.9421 1.76882L13.9451 1.7705L19.89 5.20335C21.0856 5.90592 21.83 7.17993 21.83 8.58003V15.42C21.83 16.8088 21.0867 18.0934 19.89 18.7967L19.8851 18.7996L13.9451 22.2295C12.7418 22.9242 11.2573 22.9223 10.0479 22.2312L10.0449 22.2295L4.105 18.7996C2.9016 18.1048 2.15997 16.8164 2.15997 15.42V8.58003C2.15997 7.19125 2.90327 5.90661 4.10001 5.20337L4.10493 5.20048L10.045 1.77047ZM13.1965 3.07041C12.4462 2.64226 11.5313 2.64443 10.795 3.06953L4.8577 6.49794C4.11577 6.93498 3.65997 7.72968 3.65997 8.58003V15.42C3.65997 16.2836 4.11836 17.0753 4.85497 17.5005L10.7921 20.9289L10.7935 20.9297C11.5438 21.3578 12.4587 21.3556 13.195 20.9305L19.13 17.5034L19.1324 17.5021C19.8742 17.065 20.33 16.2703 20.33 15.42V8.58003C20.33 7.721 19.8754 6.93563 19.1323 6.49794L19.13 6.49661L13.1979 3.07118L13.1965 3.07041Z"/>
</svg>